G04 #@! TF.FileFunction,Copper,L1,Top,Signal*
%FSLAX46Y46*%
G04 Gerber Fmt 4.6, Leading zero omitted, Abs format (unit mm)*
G04 Created by KiCad (PCBNEW 4.1.0-alpha+201609050731+7118~50~ubuntu16.04.1-product) date Sat Sep 10 22:59:24 2016*
%MOMM*%
%LPD*%
G01*
G04 APERTURE LIST*
%ADD10C,0.100000*%
%ADD11R,1.700000X0.400000*%
%ADD12O,1.850000X1.050000*%
%ADD13R,0.750000X0.800000*%
%ADD14R,0.797560X0.797560*%
%ADD15R,2.032000X2.032000*%
%ADD16O,2.032000X2.032000*%
%ADD17R,1.727200X1.727200*%
%ADD18O,1.727200X1.727200*%
%ADD19R,0.900000X1.200000*%
%ADD20C,0.600000*%
%ADD21C,0.381000*%
%ADD22C,0.254000*%
%ADD23C,0.203200*%
G04 APERTURE END LIST*
D10*
D11*
X118348400Y-115602000D03*
X118348400Y-116252000D03*
X118348400Y-114952000D03*
D10*
G36*
X117498400Y-114102000D02*
X119198400Y-114102000D01*
X119198400Y-114502000D01*
X117498400Y-114502000D01*
X117498400Y-114102000D01*
X117498400Y-114102000D01*
G37*
D11*
X118348400Y-116902000D03*
D12*
X115248400Y-112027000D03*
X115248400Y-119177000D03*
X118698400Y-112027000D03*
X118698400Y-119177000D03*
D13*
X121742200Y-113919000D03*
X121742200Y-115419000D03*
D14*
X125095000Y-116078000D03*
X125095000Y-114579400D03*
X126949200Y-116065300D03*
X126949200Y-114566700D03*
D15*
X115747800Y-125196600D03*
D16*
X115747800Y-122656600D03*
D17*
X119583200Y-125196600D03*
D18*
X119583200Y-122656600D03*
X122123200Y-125196600D03*
X122123200Y-122656600D03*
X124663200Y-125196600D03*
X124663200Y-122656600D03*
X127203200Y-125196600D03*
X127203200Y-122656600D03*
D14*
X123240800Y-116078000D03*
X123240800Y-114579400D03*
D19*
X123240800Y-119862600D03*
X123240800Y-117662600D03*
X125095000Y-119862600D03*
X125095000Y-117662600D03*
X126949200Y-119862600D03*
X126949200Y-117662600D03*
D20*
X126009400Y-116687600D03*
X120736998Y-114477800D03*
X119979729Y-114300219D03*
X120086626Y-117987574D03*
X120654574Y-117419626D03*
X124218418Y-115722398D03*
X120853200Y-116281200D03*
X123956790Y-113690400D03*
X127469379Y-118789980D03*
D21*
X118348400Y-114302000D02*
X119977948Y-114302000D01*
X119977948Y-114302000D02*
X119979729Y-114300219D01*
D22*
X122123200Y-125196600D02*
X123291601Y-124028199D01*
X123291601Y-124028199D02*
X123291601Y-120767401D01*
X123291601Y-120767401D02*
X123240800Y-120716600D01*
X123240800Y-120716600D02*
X123240800Y-119862600D01*
D23*
X119786627Y-117687575D02*
X120086626Y-117987574D01*
X119786627Y-115987027D02*
X119786627Y-117687575D01*
X118348400Y-115602000D02*
X119401600Y-115602000D01*
X119401600Y-115602000D02*
X119786627Y-115987027D01*
X120273799Y-115824199D02*
X120273799Y-117038851D01*
X120354575Y-117119627D02*
X120654574Y-117419626D01*
X119401600Y-114952000D02*
X120273799Y-115824199D01*
X120273799Y-117038851D02*
X120354575Y-117119627D01*
X118348400Y-114952000D02*
X119401600Y-114952000D01*
D22*
X124327217Y-115831197D02*
X124218418Y-115722398D01*
X123883421Y-115374419D02*
X124218418Y-115722398D01*
X124340199Y-115831197D02*
X124327217Y-115831197D01*
X121742200Y-115419000D02*
X122371200Y-115419000D01*
X122371200Y-115419000D02*
X122415781Y-115374419D01*
X124340199Y-115831197D02*
X124340199Y-118957799D01*
X122415781Y-115374419D02*
X123883421Y-115374419D01*
X124340199Y-118957799D02*
X125095000Y-119712600D01*
X125095000Y-119712600D02*
X125095000Y-119862600D01*
X120853200Y-116281200D02*
X120880000Y-116281200D01*
X120880000Y-116281200D02*
X121742200Y-115419000D01*
X125095000Y-119862600D02*
X126949200Y-119862600D01*
X125095000Y-117662600D02*
X125095000Y-116078000D01*
X123956790Y-114093970D02*
X123956790Y-113690400D01*
X124442220Y-114579400D02*
X123956790Y-114093970D01*
X125095000Y-114579400D02*
X124442220Y-114579400D01*
X126949200Y-117662600D02*
X126949200Y-116065300D01*
X127787400Y-114752120D02*
X127787400Y-118423042D01*
X127787400Y-118423042D02*
X127469379Y-118741063D01*
X127469379Y-118741063D02*
X127469379Y-118789980D01*
X126949200Y-114566700D02*
X127601980Y-114566700D01*
X127601980Y-114566700D02*
X127787400Y-114752120D01*
X123240800Y-117662600D02*
X123240800Y-116078000D01*
G36*
X128544000Y-126544000D02*
X116953607Y-126544000D01*
X117038486Y-126487286D01*
X117122694Y-126361259D01*
X117152264Y-126212600D01*
X117152264Y-124333000D01*
X118331136Y-124333000D01*
X118331136Y-126060200D01*
X118360706Y-126208859D01*
X118444914Y-126334886D01*
X118570941Y-126419094D01*
X118719600Y-126448664D01*
X120446800Y-126448664D01*
X120595459Y-126419094D01*
X120721486Y-126334886D01*
X120805694Y-126208859D01*
X120835264Y-126060200D01*
X120835264Y-124333000D01*
X120805694Y-124184341D01*
X120721486Y-124058314D01*
X120595459Y-123974106D01*
X120446800Y-123944536D01*
X118719600Y-123944536D01*
X118570941Y-123974106D01*
X118444914Y-124058314D01*
X118360706Y-124184341D01*
X118331136Y-124333000D01*
X117152264Y-124333000D01*
X117152264Y-124180600D01*
X117122694Y-124031941D01*
X117038486Y-123905914D01*
X116912459Y-123821706D01*
X116763800Y-123792136D01*
X116541937Y-123792136D01*
X116762997Y-123644428D01*
X117065829Y-123191209D01*
X117172169Y-122656600D01*
X117065829Y-122121991D01*
X116762997Y-121668772D01*
X116309778Y-121365940D01*
X115775169Y-121259600D01*
X115720431Y-121259600D01*
X115185822Y-121365940D01*
X114732603Y-121668772D01*
X114456000Y-122082737D01*
X114456000Y-120000603D01*
X114476103Y-120014035D01*
X114822814Y-120083000D01*
X115673986Y-120083000D01*
X116020697Y-120014035D01*
X116314625Y-119817639D01*
X116511021Y-119523711D01*
X116579986Y-119177000D01*
X116511021Y-118830289D01*
X116314625Y-118536361D01*
X116020697Y-118339965D01*
X115673986Y-118271000D01*
X114822814Y-118271000D01*
X114476103Y-118339965D01*
X114456000Y-118353397D01*
X114456000Y-113741816D01*
X116667278Y-113741816D01*
X116774534Y-114001394D01*
X116972961Y-114200168D01*
X117109936Y-114257045D01*
X117109936Y-114502000D01*
X117134800Y-114627000D01*
X117109936Y-114752000D01*
X117109936Y-115152000D01*
X117134800Y-115277000D01*
X117109936Y-115402000D01*
X117109936Y-115542438D01*
X116960073Y-115692302D01*
X116863400Y-115925691D01*
X116863400Y-115993250D01*
X117022150Y-116152000D01*
X117336430Y-116152000D01*
X117349741Y-116160894D01*
X117498400Y-116190464D01*
X118495400Y-116190464D01*
X118495400Y-116313536D01*
X117498400Y-116313536D01*
X117349741Y-116343106D01*
X117336430Y-116352000D01*
X117022150Y-116352000D01*
X116863400Y-116510750D01*
X116863400Y-116578309D01*
X116960073Y-116811698D01*
X117099610Y-116951235D01*
X116974006Y-117003134D01*
X116775232Y-117201561D01*
X116667523Y-117460952D01*
X116667278Y-117741816D01*
X116774534Y-118001394D01*
X116972961Y-118200168D01*
X117232352Y-118307877D01*
X117513216Y-118308122D01*
X117772794Y-118200866D01*
X117971568Y-118002439D01*
X118079277Y-117743048D01*
X118079497Y-117490464D01*
X119198400Y-117490464D01*
X119304027Y-117469454D01*
X119304027Y-117687575D01*
X119340763Y-117872258D01*
X119405641Y-117969356D01*
X119405508Y-118122439D01*
X119504803Y-118362754D01*
X119470697Y-118339965D01*
X119123986Y-118271000D01*
X118272814Y-118271000D01*
X117926103Y-118339965D01*
X117632175Y-118536361D01*
X117435779Y-118830289D01*
X117366814Y-119177000D01*
X117435779Y-119523711D01*
X117632175Y-119817639D01*
X117926103Y-120014035D01*
X118272814Y-120083000D01*
X119123986Y-120083000D01*
X119470697Y-120014035D01*
X119764625Y-119817639D01*
X119961021Y-119523711D01*
X120029986Y-119177000D01*
X119961021Y-118830289D01*
X119815378Y-118612318D01*
X119950572Y-118668456D01*
X120221491Y-118668692D01*
X120471878Y-118565235D01*
X120663613Y-118373833D01*
X120767508Y-118123628D01*
X120767528Y-118100725D01*
X120789439Y-118100744D01*
X121039826Y-117997287D01*
X121231561Y-117805885D01*
X121335456Y-117555680D01*
X121335692Y-117284761D01*
X121232235Y-117034374D01*
X121110007Y-116911933D01*
X121238452Y-116858861D01*
X121430187Y-116667459D01*
X121534082Y-116417254D01*
X121534145Y-116345475D01*
X121672156Y-116207464D01*
X122117200Y-116207464D01*
X122265859Y-116177894D01*
X122391886Y-116093686D01*
X122453556Y-116001390D01*
X122453556Y-116476780D01*
X122483126Y-116625439D01*
X122567334Y-116751466D01*
X122568998Y-116752578D01*
X122516114Y-116787914D01*
X122431906Y-116913941D01*
X122402336Y-117062600D01*
X122402336Y-118262600D01*
X122431906Y-118411259D01*
X122516114Y-118537286D01*
X122642141Y-118621494D01*
X122790800Y-118651064D01*
X123690800Y-118651064D01*
X123832199Y-118622938D01*
X123832199Y-118902262D01*
X123690800Y-118874136D01*
X122790800Y-118874136D01*
X122642141Y-118903706D01*
X122516114Y-118987914D01*
X122431906Y-119113941D01*
X122402336Y-119262600D01*
X122402336Y-120462600D01*
X122431906Y-120611259D01*
X122516114Y-120737286D01*
X122642141Y-120821494D01*
X122758259Y-120844591D01*
X122771469Y-120911003D01*
X122783601Y-120929160D01*
X122783601Y-121326468D01*
X122482226Y-121201642D01*
X122250200Y-121322783D01*
X122250200Y-122529600D01*
X122270200Y-122529600D01*
X122270200Y-122783600D01*
X122250200Y-122783600D01*
X122250200Y-122803600D01*
X121996200Y-122803600D01*
X121996200Y-122783600D01*
X121976200Y-122783600D01*
X121976200Y-122529600D01*
X121996200Y-122529600D01*
X121996200Y-121322783D01*
X121764174Y-121201642D01*
X121348253Y-121373912D01*
X120916379Y-121768110D01*
X120733524Y-122158262D01*
X120733060Y-122155929D01*
X120463265Y-121752152D01*
X120059488Y-121482357D01*
X119583200Y-121387617D01*
X119106912Y-121482357D01*
X118703135Y-121752152D01*
X118433340Y-122155929D01*
X118338600Y-122632217D01*
X118338600Y-122680983D01*
X118433340Y-123157271D01*
X118703135Y-123561048D01*
X119106912Y-123830843D01*
X119583200Y-123925583D01*
X120059488Y-123830843D01*
X120463265Y-123561048D01*
X120733060Y-123157271D01*
X120733524Y-123154938D01*
X120916379Y-123545090D01*
X121348253Y-123939288D01*
X121609372Y-124047441D01*
X121243135Y-124292152D01*
X120973340Y-124695929D01*
X120878600Y-125172217D01*
X120878600Y-125220983D01*
X120973340Y-125697271D01*
X121243135Y-126101048D01*
X121646912Y-126370843D01*
X122123200Y-126465583D01*
X122599488Y-126370843D01*
X123003265Y-126101048D01*
X123273060Y-125697271D01*
X123367800Y-125220983D01*
X123367800Y-125172217D01*
X123418600Y-125172217D01*
X123418600Y-125220983D01*
X123513340Y-125697271D01*
X123783135Y-126101048D01*
X124186912Y-126370843D01*
X124663200Y-126465583D01*
X125139488Y-126370843D01*
X125543265Y-126101048D01*
X125813060Y-125697271D01*
X125907800Y-125220983D01*
X125907800Y-125172217D01*
X125958600Y-125172217D01*
X125958600Y-125220983D01*
X126053340Y-125697271D01*
X126323135Y-126101048D01*
X126726912Y-126370843D01*
X127203200Y-126465583D01*
X127679488Y-126370843D01*
X128083265Y-126101048D01*
X128353060Y-125697271D01*
X128447800Y-125220983D01*
X128447800Y-125172217D01*
X128353060Y-124695929D01*
X128083265Y-124292152D01*
X127679488Y-124022357D01*
X127203200Y-123927617D01*
X126726912Y-124022357D01*
X126323135Y-124292152D01*
X126053340Y-124695929D01*
X125958600Y-125172217D01*
X125907800Y-125172217D01*
X125813060Y-124695929D01*
X125543265Y-124292152D01*
X125139488Y-124022357D01*
X124663200Y-123927617D01*
X124186912Y-124022357D01*
X123783135Y-124292152D01*
X123513340Y-124695929D01*
X123418600Y-125172217D01*
X123367800Y-125172217D01*
X123284546Y-124753674D01*
X123650812Y-124387409D01*
X123760932Y-124222602D01*
X123799601Y-124028199D01*
X123799601Y-123572050D01*
X124186912Y-123830843D01*
X124663200Y-123925583D01*
X125139488Y-123830843D01*
X125543265Y-123561048D01*
X125813060Y-123157271D01*
X125907800Y-122680983D01*
X125907800Y-122632217D01*
X125958600Y-122632217D01*
X125958600Y-122680983D01*
X126053340Y-123157271D01*
X126323135Y-123561048D01*
X126726912Y-123830843D01*
X127203200Y-123925583D01*
X127679488Y-123830843D01*
X128083265Y-123561048D01*
X128353060Y-123157271D01*
X128447800Y-122680983D01*
X128447800Y-122632217D01*
X128353060Y-122155929D01*
X128083265Y-121752152D01*
X127679488Y-121482357D01*
X127203200Y-121387617D01*
X126726912Y-121482357D01*
X126323135Y-121752152D01*
X126053340Y-122155929D01*
X125958600Y-122632217D01*
X125907800Y-122632217D01*
X125813060Y-122155929D01*
X125543265Y-121752152D01*
X125139488Y-121482357D01*
X124663200Y-121387617D01*
X124186912Y-121482357D01*
X123799601Y-121741150D01*
X123799601Y-120829422D01*
X123839459Y-120821494D01*
X123965486Y-120737286D01*
X124049694Y-120611259D01*
X124079264Y-120462600D01*
X124079264Y-119415284D01*
X124256536Y-119592556D01*
X124256536Y-120462600D01*
X124286106Y-120611259D01*
X124370314Y-120737286D01*
X124496341Y-120821494D01*
X124645000Y-120851064D01*
X125545000Y-120851064D01*
X125693659Y-120821494D01*
X125819686Y-120737286D01*
X125903894Y-120611259D01*
X125933464Y-120462600D01*
X125933464Y-120370600D01*
X126110736Y-120370600D01*
X126110736Y-120462600D01*
X126140306Y-120611259D01*
X126224514Y-120737286D01*
X126350541Y-120821494D01*
X126499200Y-120851064D01*
X127399200Y-120851064D01*
X127547859Y-120821494D01*
X127673886Y-120737286D01*
X127758094Y-120611259D01*
X127787664Y-120462600D01*
X127787664Y-119395311D01*
X127854631Y-119367641D01*
X128046366Y-119176239D01*
X128150261Y-118926034D01*
X128150391Y-118776595D01*
X128256731Y-118617445D01*
X128295400Y-118423042D01*
X128295400Y-114752120D01*
X128256731Y-114557717D01*
X128197719Y-114469400D01*
X128146610Y-114392909D01*
X127961190Y-114207490D01*
X127796383Y-114097369D01*
X127719363Y-114082049D01*
X127706874Y-114019261D01*
X127622666Y-113893234D01*
X127496639Y-113809026D01*
X127347980Y-113779456D01*
X126550420Y-113779456D01*
X126401761Y-113809026D01*
X126275734Y-113893234D01*
X126191526Y-114019261D01*
X126161956Y-114167920D01*
X126161956Y-114965480D01*
X126191526Y-115114139D01*
X126275734Y-115240166D01*
X126389228Y-115316000D01*
X126275734Y-115391834D01*
X126191526Y-115517861D01*
X126161956Y-115666520D01*
X126161956Y-116464080D01*
X126191526Y-116612739D01*
X126275734Y-116738766D01*
X126286902Y-116746228D01*
X126224514Y-116787914D01*
X126140306Y-116913941D01*
X126110736Y-117062600D01*
X126110736Y-118262600D01*
X126140306Y-118411259D01*
X126224514Y-118537286D01*
X126350541Y-118621494D01*
X126499200Y-118651064D01*
X126789685Y-118651064D01*
X126788497Y-118653926D01*
X126788305Y-118874136D01*
X126499200Y-118874136D01*
X126350541Y-118903706D01*
X126224514Y-118987914D01*
X126140306Y-119113941D01*
X126110736Y-119262600D01*
X126110736Y-119354600D01*
X125933464Y-119354600D01*
X125933464Y-119262600D01*
X125903894Y-119113941D01*
X125819686Y-118987914D01*
X125693659Y-118903706D01*
X125545000Y-118874136D01*
X124974956Y-118874136D01*
X124848199Y-118747379D01*
X124848199Y-118651064D01*
X125545000Y-118651064D01*
X125693659Y-118621494D01*
X125819686Y-118537286D01*
X125903894Y-118411259D01*
X125933464Y-118262600D01*
X125933464Y-117062600D01*
X125903894Y-116913941D01*
X125819686Y-116787914D01*
X125766802Y-116752578D01*
X125768466Y-116751466D01*
X125852674Y-116625439D01*
X125882244Y-116476780D01*
X125882244Y-115679220D01*
X125852674Y-115530561D01*
X125768466Y-115404534D01*
X125654972Y-115328700D01*
X125768466Y-115252866D01*
X125852674Y-115126839D01*
X125882244Y-114978180D01*
X125882244Y-114180620D01*
X125852674Y-114031961D01*
X125768466Y-113905934D01*
X125642439Y-113821726D01*
X125493780Y-113792156D01*
X124696220Y-113792156D01*
X124637692Y-113803798D01*
X124637908Y-113555535D01*
X124534451Y-113305148D01*
X124343049Y-113113413D01*
X124092844Y-113009518D01*
X123821925Y-113009282D01*
X123571538Y-113112739D01*
X123379803Y-113304141D01*
X123275908Y-113554346D01*
X123275672Y-113825265D01*
X123367800Y-114048234D01*
X123367800Y-114452400D01*
X123387800Y-114452400D01*
X123387800Y-114706400D01*
X123367800Y-114706400D01*
X123367800Y-114726400D01*
X123113800Y-114726400D01*
X123113800Y-114706400D01*
X123093800Y-114706400D01*
X123093800Y-114452400D01*
X123113800Y-114452400D01*
X123113800Y-113704370D01*
X122955050Y-113545620D01*
X122752200Y-113545620D01*
X122752200Y-113392691D01*
X122655527Y-113159302D01*
X122476899Y-112980673D01*
X122243510Y-112884000D01*
X122027950Y-112884000D01*
X121869200Y-113042750D01*
X121869200Y-113792000D01*
X121889200Y-113792000D01*
X121889200Y-114046000D01*
X121869200Y-114046000D01*
X121869200Y-114066000D01*
X121615200Y-114066000D01*
X121615200Y-114046000D01*
X120890950Y-114046000D01*
X120732200Y-114204750D01*
X120732200Y-114445309D01*
X120828873Y-114678698D01*
X121007501Y-114857327D01*
X121014942Y-114860409D01*
X121008306Y-114870341D01*
X120978736Y-115019000D01*
X120978736Y-115464044D01*
X120842590Y-115600190D01*
X120718335Y-115600082D01*
X120698727Y-115608184D01*
X120646862Y-115530561D01*
X120615049Y-115482949D01*
X120615046Y-115482947D01*
X120113436Y-114981336D01*
X120114594Y-114981337D01*
X120364981Y-114877880D01*
X120556716Y-114686478D01*
X120660611Y-114436273D01*
X120660847Y-114165354D01*
X120557390Y-113914967D01*
X120365988Y-113723232D01*
X120115783Y-113619337D01*
X119844864Y-113619101D01*
X119594477Y-113722558D01*
X119586521Y-113730500D01*
X119283684Y-113730500D01*
X119198400Y-113713536D01*
X118079303Y-113713536D01*
X118079522Y-113462184D01*
X118050808Y-113392691D01*
X120732200Y-113392691D01*
X120732200Y-113633250D01*
X120890950Y-113792000D01*
X121615200Y-113792000D01*
X121615200Y-113042750D01*
X121456450Y-112884000D01*
X121240890Y-112884000D01*
X121007501Y-112980673D01*
X120828873Y-113159302D01*
X120732200Y-113392691D01*
X118050808Y-113392691D01*
X117972266Y-113202606D01*
X117773839Y-113003832D01*
X117514448Y-112896123D01*
X117233584Y-112895878D01*
X116974006Y-113003134D01*
X116775232Y-113201561D01*
X116667523Y-113460952D01*
X116667278Y-113741816D01*
X114456000Y-113741816D01*
X114456000Y-112850603D01*
X114476103Y-112864035D01*
X114822814Y-112933000D01*
X115673986Y-112933000D01*
X116020697Y-112864035D01*
X116314625Y-112667639D01*
X116511021Y-112373711D01*
X116579986Y-112027000D01*
X117366814Y-112027000D01*
X117435779Y-112373711D01*
X117632175Y-112667639D01*
X117926103Y-112864035D01*
X118272814Y-112933000D01*
X119123986Y-112933000D01*
X119470697Y-112864035D01*
X119764625Y-112667639D01*
X119961021Y-112373711D01*
X120029986Y-112027000D01*
X119961021Y-111680289D01*
X119764625Y-111386361D01*
X119470697Y-111189965D01*
X119123986Y-111121000D01*
X118272814Y-111121000D01*
X117926103Y-111189965D01*
X117632175Y-111386361D01*
X117435779Y-111680289D01*
X117366814Y-112027000D01*
X116579986Y-112027000D01*
X116511021Y-111680289D01*
X116314625Y-111386361D01*
X116020697Y-111189965D01*
X115673986Y-111121000D01*
X114822814Y-111121000D01*
X114476103Y-111189965D01*
X114456000Y-111203397D01*
X114456000Y-110456000D01*
X128544000Y-110456000D01*
X128544000Y-126544000D01*
X128544000Y-126544000D01*
G37*
X128544000Y-126544000D02*
X116953607Y-126544000D01*
X117038486Y-126487286D01*
X117122694Y-126361259D01*
X117152264Y-126212600D01*
X117152264Y-124333000D01*
X118331136Y-124333000D01*
X118331136Y-126060200D01*
X118360706Y-126208859D01*
X118444914Y-126334886D01*
X118570941Y-126419094D01*
X118719600Y-126448664D01*
X120446800Y-126448664D01*
X120595459Y-126419094D01*
X120721486Y-126334886D01*
X120805694Y-126208859D01*
X120835264Y-126060200D01*
X120835264Y-124333000D01*
X120805694Y-124184341D01*
X120721486Y-124058314D01*
X120595459Y-123974106D01*
X120446800Y-123944536D01*
X118719600Y-123944536D01*
X118570941Y-123974106D01*
X118444914Y-124058314D01*
X118360706Y-124184341D01*
X118331136Y-124333000D01*
X117152264Y-124333000D01*
X117152264Y-124180600D01*
X117122694Y-124031941D01*
X117038486Y-123905914D01*
X116912459Y-123821706D01*
X116763800Y-123792136D01*
X116541937Y-123792136D01*
X116762997Y-123644428D01*
X117065829Y-123191209D01*
X117172169Y-122656600D01*
X117065829Y-122121991D01*
X116762997Y-121668772D01*
X116309778Y-121365940D01*
X115775169Y-121259600D01*
X115720431Y-121259600D01*
X115185822Y-121365940D01*
X114732603Y-121668772D01*
X114456000Y-122082737D01*
X114456000Y-120000603D01*
X114476103Y-120014035D01*
X114822814Y-120083000D01*
X115673986Y-120083000D01*
X116020697Y-120014035D01*
X116314625Y-119817639D01*
X116511021Y-119523711D01*
X116579986Y-119177000D01*
X116511021Y-118830289D01*
X116314625Y-118536361D01*
X116020697Y-118339965D01*
X115673986Y-118271000D01*
X114822814Y-118271000D01*
X114476103Y-118339965D01*
X114456000Y-118353397D01*
X114456000Y-113741816D01*
X116667278Y-113741816D01*
X116774534Y-114001394D01*
X116972961Y-114200168D01*
X117109936Y-114257045D01*
X117109936Y-114502000D01*
X117134800Y-114627000D01*
X117109936Y-114752000D01*
X117109936Y-115152000D01*
X117134800Y-115277000D01*
X117109936Y-115402000D01*
X117109936Y-115542438D01*
X116960073Y-115692302D01*
X116863400Y-115925691D01*
X116863400Y-115993250D01*
X117022150Y-116152000D01*
X117336430Y-116152000D01*
X117349741Y-116160894D01*
X117498400Y-116190464D01*
X118495400Y-116190464D01*
X118495400Y-116313536D01*
X117498400Y-116313536D01*
X117349741Y-116343106D01*
X117336430Y-116352000D01*
X117022150Y-116352000D01*
X116863400Y-116510750D01*
X116863400Y-116578309D01*
X116960073Y-116811698D01*
X117099610Y-116951235D01*
X116974006Y-117003134D01*
X116775232Y-117201561D01*
X116667523Y-117460952D01*
X116667278Y-117741816D01*
X116774534Y-118001394D01*
X116972961Y-118200168D01*
X117232352Y-118307877D01*
X117513216Y-118308122D01*
X117772794Y-118200866D01*
X117971568Y-118002439D01*
X118079277Y-117743048D01*
X118079497Y-117490464D01*
X119198400Y-117490464D01*
X119304027Y-117469454D01*
X119304027Y-117687575D01*
X119340763Y-117872258D01*
X119405641Y-117969356D01*
X119405508Y-118122439D01*
X119504803Y-118362754D01*
X119470697Y-118339965D01*
X119123986Y-118271000D01*
X118272814Y-118271000D01*
X117926103Y-118339965D01*
X117632175Y-118536361D01*
X117435779Y-118830289D01*
X117366814Y-119177000D01*
X117435779Y-119523711D01*
X117632175Y-119817639D01*
X117926103Y-120014035D01*
X118272814Y-120083000D01*
X119123986Y-120083000D01*
X119470697Y-120014035D01*
X119764625Y-119817639D01*
X119961021Y-119523711D01*
X120029986Y-119177000D01*
X119961021Y-118830289D01*
X119815378Y-118612318D01*
X119950572Y-118668456D01*
X120221491Y-118668692D01*
X120471878Y-118565235D01*
X120663613Y-118373833D01*
X120767508Y-118123628D01*
X120767528Y-118100725D01*
X120789439Y-118100744D01*
X121039826Y-117997287D01*
X121231561Y-117805885D01*
X121335456Y-117555680D01*
X121335692Y-117284761D01*
X121232235Y-117034374D01*
X121110007Y-116911933D01*
X121238452Y-116858861D01*
X121430187Y-116667459D01*
X121534082Y-116417254D01*
X121534145Y-116345475D01*
X121672156Y-116207464D01*
X122117200Y-116207464D01*
X122265859Y-116177894D01*
X122391886Y-116093686D01*
X122453556Y-116001390D01*
X122453556Y-116476780D01*
X122483126Y-116625439D01*
X122567334Y-116751466D01*
X122568998Y-116752578D01*
X122516114Y-116787914D01*
X122431906Y-116913941D01*
X122402336Y-117062600D01*
X122402336Y-118262600D01*
X122431906Y-118411259D01*
X122516114Y-118537286D01*
X122642141Y-118621494D01*
X122790800Y-118651064D01*
X123690800Y-118651064D01*
X123832199Y-118622938D01*
X123832199Y-118902262D01*
X123690800Y-118874136D01*
X122790800Y-118874136D01*
X122642141Y-118903706D01*
X122516114Y-118987914D01*
X122431906Y-119113941D01*
X122402336Y-119262600D01*
X122402336Y-120462600D01*
X122431906Y-120611259D01*
X122516114Y-120737286D01*
X122642141Y-120821494D01*
X122758259Y-120844591D01*
X122771469Y-120911003D01*
X122783601Y-120929160D01*
X122783601Y-121326468D01*
X122482226Y-121201642D01*
X122250200Y-121322783D01*
X122250200Y-122529600D01*
X122270200Y-122529600D01*
X122270200Y-122783600D01*
X122250200Y-122783600D01*
X122250200Y-122803600D01*
X121996200Y-122803600D01*
X121996200Y-122783600D01*
X121976200Y-122783600D01*
X121976200Y-122529600D01*
X121996200Y-122529600D01*
X121996200Y-121322783D01*
X121764174Y-121201642D01*
X121348253Y-121373912D01*
X120916379Y-121768110D01*
X120733524Y-122158262D01*
X120733060Y-122155929D01*
X120463265Y-121752152D01*
X120059488Y-121482357D01*
X119583200Y-121387617D01*
X119106912Y-121482357D01*
X118703135Y-121752152D01*
X118433340Y-122155929D01*
X118338600Y-122632217D01*
X118338600Y-122680983D01*
X118433340Y-123157271D01*
X118703135Y-123561048D01*
X119106912Y-123830843D01*
X119583200Y-123925583D01*
X120059488Y-123830843D01*
X120463265Y-123561048D01*
X120733060Y-123157271D01*
X120733524Y-123154938D01*
X120916379Y-123545090D01*
X121348253Y-123939288D01*
X121609372Y-124047441D01*
X121243135Y-124292152D01*
X120973340Y-124695929D01*
X120878600Y-125172217D01*
X120878600Y-125220983D01*
X120973340Y-125697271D01*
X121243135Y-126101048D01*
X121646912Y-126370843D01*
X122123200Y-126465583D01*
X122599488Y-126370843D01*
X123003265Y-126101048D01*
X123273060Y-125697271D01*
X123367800Y-125220983D01*
X123367800Y-125172217D01*
X123418600Y-125172217D01*
X123418600Y-125220983D01*
X123513340Y-125697271D01*
X123783135Y-126101048D01*
X124186912Y-126370843D01*
X124663200Y-126465583D01*
X125139488Y-126370843D01*
X125543265Y-126101048D01*
X125813060Y-125697271D01*
X125907800Y-125220983D01*
X125907800Y-125172217D01*
X125958600Y-125172217D01*
X125958600Y-125220983D01*
X126053340Y-125697271D01*
X126323135Y-126101048D01*
X126726912Y-126370843D01*
X127203200Y-126465583D01*
X127679488Y-126370843D01*
X128083265Y-126101048D01*
X128353060Y-125697271D01*
X128447800Y-125220983D01*
X128447800Y-125172217D01*
X128353060Y-124695929D01*
X128083265Y-124292152D01*
X127679488Y-124022357D01*
X127203200Y-123927617D01*
X126726912Y-124022357D01*
X126323135Y-124292152D01*
X126053340Y-124695929D01*
X125958600Y-125172217D01*
X125907800Y-125172217D01*
X125813060Y-124695929D01*
X125543265Y-124292152D01*
X125139488Y-124022357D01*
X124663200Y-123927617D01*
X124186912Y-124022357D01*
X123783135Y-124292152D01*
X123513340Y-124695929D01*
X123418600Y-125172217D01*
X123367800Y-125172217D01*
X123284546Y-124753674D01*
X123650812Y-124387409D01*
X123760932Y-124222602D01*
X123799601Y-124028199D01*
X123799601Y-123572050D01*
X124186912Y-123830843D01*
X124663200Y-123925583D01*
X125139488Y-123830843D01*
X125543265Y-123561048D01*
X125813060Y-123157271D01*
X125907800Y-122680983D01*
X125907800Y-122632217D01*
X125958600Y-122632217D01*
X125958600Y-122680983D01*
X126053340Y-123157271D01*
X126323135Y-123561048D01*
X126726912Y-123830843D01*
X127203200Y-123925583D01*
X127679488Y-123830843D01*
X128083265Y-123561048D01*
X128353060Y-123157271D01*
X128447800Y-122680983D01*
X128447800Y-122632217D01*
X128353060Y-122155929D01*
X128083265Y-121752152D01*
X127679488Y-121482357D01*
X127203200Y-121387617D01*
X126726912Y-121482357D01*
X126323135Y-121752152D01*
X126053340Y-122155929D01*
X125958600Y-122632217D01*
X125907800Y-122632217D01*
X125813060Y-122155929D01*
X125543265Y-121752152D01*
X125139488Y-121482357D01*
X124663200Y-121387617D01*
X124186912Y-121482357D01*
X123799601Y-121741150D01*
X123799601Y-120829422D01*
X123839459Y-120821494D01*
X123965486Y-120737286D01*
X124049694Y-120611259D01*
X124079264Y-120462600D01*
X124079264Y-119415284D01*
X124256536Y-119592556D01*
X124256536Y-120462600D01*
X124286106Y-120611259D01*
X124370314Y-120737286D01*
X124496341Y-120821494D01*
X124645000Y-120851064D01*
X125545000Y-120851064D01*
X125693659Y-120821494D01*
X125819686Y-120737286D01*
X125903894Y-120611259D01*
X125933464Y-120462600D01*
X125933464Y-120370600D01*
X126110736Y-120370600D01*
X126110736Y-120462600D01*
X126140306Y-120611259D01*
X126224514Y-120737286D01*
X126350541Y-120821494D01*
X126499200Y-120851064D01*
X127399200Y-120851064D01*
X127547859Y-120821494D01*
X127673886Y-120737286D01*
X127758094Y-120611259D01*
X127787664Y-120462600D01*
X127787664Y-119395311D01*
X127854631Y-119367641D01*
X128046366Y-119176239D01*
X128150261Y-118926034D01*
X128150391Y-118776595D01*
X128256731Y-118617445D01*
X128295400Y-118423042D01*
X128295400Y-114752120D01*
X128256731Y-114557717D01*
X128197719Y-114469400D01*
X128146610Y-114392909D01*
X127961190Y-114207490D01*
X127796383Y-114097369D01*
X127719363Y-114082049D01*
X127706874Y-114019261D01*
X127622666Y-113893234D01*
X127496639Y-113809026D01*
X127347980Y-113779456D01*
X126550420Y-113779456D01*
X126401761Y-113809026D01*
X126275734Y-113893234D01*
X126191526Y-114019261D01*
X126161956Y-114167920D01*
X126161956Y-114965480D01*
X126191526Y-115114139D01*
X126275734Y-115240166D01*
X126389228Y-115316000D01*
X126275734Y-115391834D01*
X126191526Y-115517861D01*
X126161956Y-115666520D01*
X126161956Y-116464080D01*
X126191526Y-116612739D01*
X126275734Y-116738766D01*
X126286902Y-116746228D01*
X126224514Y-116787914D01*
X126140306Y-116913941D01*
X126110736Y-117062600D01*
X126110736Y-118262600D01*
X126140306Y-118411259D01*
X126224514Y-118537286D01*
X126350541Y-118621494D01*
X126499200Y-118651064D01*
X126789685Y-118651064D01*
X126788497Y-118653926D01*
X126788305Y-118874136D01*
X126499200Y-118874136D01*
X126350541Y-118903706D01*
X126224514Y-118987914D01*
X126140306Y-119113941D01*
X126110736Y-119262600D01*
X126110736Y-119354600D01*
X125933464Y-119354600D01*
X125933464Y-119262600D01*
X125903894Y-119113941D01*
X125819686Y-118987914D01*
X125693659Y-118903706D01*
X125545000Y-118874136D01*
X124974956Y-118874136D01*
X124848199Y-118747379D01*
X124848199Y-118651064D01*
X125545000Y-118651064D01*
X125693659Y-118621494D01*
X125819686Y-118537286D01*
X125903894Y-118411259D01*
X125933464Y-118262600D01*
X125933464Y-117062600D01*
X125903894Y-116913941D01*
X125819686Y-116787914D01*
X125766802Y-116752578D01*
X125768466Y-116751466D01*
X125852674Y-116625439D01*
X125882244Y-116476780D01*
X125882244Y-115679220D01*
X125852674Y-115530561D01*
X125768466Y-115404534D01*
X125654972Y-115328700D01*
X125768466Y-115252866D01*
X125852674Y-115126839D01*
X125882244Y-114978180D01*
X125882244Y-114180620D01*
X125852674Y-114031961D01*
X125768466Y-113905934D01*
X125642439Y-113821726D01*
X125493780Y-113792156D01*
X124696220Y-113792156D01*
X124637692Y-113803798D01*
X124637908Y-113555535D01*
X124534451Y-113305148D01*
X124343049Y-113113413D01*
X124092844Y-113009518D01*
X123821925Y-113009282D01*
X123571538Y-113112739D01*
X123379803Y-113304141D01*
X123275908Y-113554346D01*
X123275672Y-113825265D01*
X123367800Y-114048234D01*
X123367800Y-114452400D01*
X123387800Y-114452400D01*
X123387800Y-114706400D01*
X123367800Y-114706400D01*
X123367800Y-114726400D01*
X123113800Y-114726400D01*
X123113800Y-114706400D01*
X123093800Y-114706400D01*
X123093800Y-114452400D01*
X123113800Y-114452400D01*
X123113800Y-113704370D01*
X122955050Y-113545620D01*
X122752200Y-113545620D01*
X122752200Y-113392691D01*
X122655527Y-113159302D01*
X122476899Y-112980673D01*
X122243510Y-112884000D01*
X122027950Y-112884000D01*
X121869200Y-113042750D01*
X121869200Y-113792000D01*
X121889200Y-113792000D01*
X121889200Y-114046000D01*
X121869200Y-114046000D01*
X121869200Y-114066000D01*
X121615200Y-114066000D01*
X121615200Y-114046000D01*
X120890950Y-114046000D01*
X120732200Y-114204750D01*
X120732200Y-114445309D01*
X120828873Y-114678698D01*
X121007501Y-114857327D01*
X121014942Y-114860409D01*
X121008306Y-114870341D01*
X120978736Y-115019000D01*
X120978736Y-115464044D01*
X120842590Y-115600190D01*
X120718335Y-115600082D01*
X120698727Y-115608184D01*
X120646862Y-115530561D01*
X120615049Y-115482949D01*
X120615046Y-115482947D01*
X120113436Y-114981336D01*
X120114594Y-114981337D01*
X120364981Y-114877880D01*
X120556716Y-114686478D01*
X120660611Y-114436273D01*
X120660847Y-114165354D01*
X120557390Y-113914967D01*
X120365988Y-113723232D01*
X120115783Y-113619337D01*
X119844864Y-113619101D01*
X119594477Y-113722558D01*
X119586521Y-113730500D01*
X119283684Y-113730500D01*
X119198400Y-113713536D01*
X118079303Y-113713536D01*
X118079522Y-113462184D01*
X118050808Y-113392691D01*
X120732200Y-113392691D01*
X120732200Y-113633250D01*
X120890950Y-113792000D01*
X121615200Y-113792000D01*
X121615200Y-113042750D01*
X121456450Y-112884000D01*
X121240890Y-112884000D01*
X121007501Y-112980673D01*
X120828873Y-113159302D01*
X120732200Y-113392691D01*
X118050808Y-113392691D01*
X117972266Y-113202606D01*
X117773839Y-113003832D01*
X117514448Y-112896123D01*
X117233584Y-112895878D01*
X116974006Y-113003134D01*
X116775232Y-113201561D01*
X116667523Y-113460952D01*
X116667278Y-113741816D01*
X114456000Y-113741816D01*
X114456000Y-112850603D01*
X114476103Y-112864035D01*
X114822814Y-112933000D01*
X115673986Y-112933000D01*
X116020697Y-112864035D01*
X116314625Y-112667639D01*
X116511021Y-112373711D01*
X116579986Y-112027000D01*
X117366814Y-112027000D01*
X117435779Y-112373711D01*
X117632175Y-112667639D01*
X117926103Y-112864035D01*
X118272814Y-112933000D01*
X119123986Y-112933000D01*
X119470697Y-112864035D01*
X119764625Y-112667639D01*
X119961021Y-112373711D01*
X120029986Y-112027000D01*
X119961021Y-111680289D01*
X119764625Y-111386361D01*
X119470697Y-111189965D01*
X119123986Y-111121000D01*
X118272814Y-111121000D01*
X117926103Y-111189965D01*
X117632175Y-111386361D01*
X117435779Y-111680289D01*
X117366814Y-112027000D01*
X116579986Y-112027000D01*
X116511021Y-111680289D01*
X116314625Y-111386361D01*
X116020697Y-111189965D01*
X115673986Y-111121000D01*
X114822814Y-111121000D01*
X114476103Y-111189965D01*
X114456000Y-111203397D01*
X114456000Y-110456000D01*
X128544000Y-110456000D01*
X128544000Y-126544000D01*
M02*
