G04 #@! TF.GenerationSoftware,KiCad,Pcbnew,no-vcs-found-7659~57~ubuntu16.10.1*
G04 #@! TF.CreationDate,2017-02-18T23:39:30+01:00*
G04 #@! TF.ProjectId,MysX2USB,4D797358325553422E6B696361645F70,rev?*
G04 #@! TF.FileFunction,Copper,L2,Bot,Signal*
G04 #@! TF.FilePolarity,Positive*
%FSLAX46Y46*%
G04 Gerber Fmt 4.6, Leading zero omitted, Abs format (unit mm)*
G04 Created by KiCad (PCBNEW no-vcs-found-7659~57~ubuntu16.10.1) date Sat Feb 18 23:39:30 2017*
%MOMM*%
%LPD*%
G01*
G04 APERTURE LIST*
%ADD10C,0.100000*%
%ADD11O,1.850000X1.050000*%
%ADD12R,2.032000X2.032000*%
%ADD13O,2.032000X2.032000*%
%ADD14R,1.727200X1.727200*%
%ADD15O,1.727200X1.727200*%
%ADD16R,1.000000X0.400000*%
%ADD17C,0.600000*%
%ADD18C,0.381000*%
%ADD19C,0.254000*%
%ADD20C,0.203200*%
G04 APERTURE END LIST*
D10*
D11*
X115248400Y-112027000D03*
X115248400Y-119177000D03*
X118698400Y-112027000D03*
X118698400Y-119177000D03*
D12*
X115747800Y-125196600D03*
D13*
X115747800Y-122656600D03*
D14*
X119583200Y-125196600D03*
D15*
X119583200Y-122656600D03*
X122123200Y-125196600D03*
X122123200Y-122656600D03*
X124663200Y-125196600D03*
X124663200Y-122656600D03*
X127203200Y-125196600D03*
X127203200Y-122656600D03*
D16*
X127766400Y-112289400D03*
X127766400Y-112939400D03*
X127766400Y-113589400D03*
X127766400Y-114239400D03*
X127766400Y-114889400D03*
X127766400Y-115539400D03*
X127766400Y-116189400D03*
X127766400Y-116839400D03*
X127766400Y-117489400D03*
X127766400Y-118139400D03*
X121966400Y-118139400D03*
X121966400Y-117489400D03*
X121966400Y-116839400D03*
X121966400Y-116189400D03*
X121966400Y-115539400D03*
X121966400Y-114889400D03*
X121966400Y-114239400D03*
X121966400Y-113589400D03*
X121966400Y-112939400D03*
X121966400Y-112289400D03*
D17*
X126009400Y-116687600D03*
X120736998Y-114477800D03*
X119979729Y-114300219D03*
X120086626Y-117987574D03*
X120654574Y-117419626D03*
X124218418Y-115722398D03*
X120853200Y-116281200D03*
X123956790Y-113690400D03*
X127469379Y-118789980D03*
X124058390Y-120781547D03*
D18*
X127766400Y-115539400D02*
X127157600Y-115539400D01*
X127157600Y-115539400D02*
X126009400Y-116687600D01*
X121966400Y-114889400D02*
X121148598Y-114889400D01*
X121148598Y-114889400D02*
X120736998Y-114477800D01*
X120794646Y-115539400D02*
X119979729Y-114724483D01*
X116680099Y-117175585D02*
X119555465Y-114300219D01*
X115747800Y-121219760D02*
X116680099Y-120287461D01*
X119979729Y-114724483D02*
X119979729Y-114300219D01*
X115747800Y-122656600D02*
X115747800Y-121219760D01*
X119555465Y-114300219D02*
X119979729Y-114300219D01*
X116680099Y-120287461D02*
X116680099Y-117175585D01*
X121966400Y-115539400D02*
X120794646Y-115539400D01*
D19*
X124790200Y-113385600D02*
X123694000Y-112289400D01*
X123972614Y-114685786D02*
X124790200Y-113868200D01*
X123694000Y-112289400D02*
X122720400Y-112289400D01*
X123453589Y-120491242D02*
X123494799Y-120450032D01*
X123749252Y-114685786D02*
X123972614Y-114685786D01*
X123128387Y-115306652D02*
X123749252Y-114685786D01*
X123494799Y-116509496D02*
X123128387Y-116143085D01*
X123494799Y-120450032D02*
X123494799Y-116509496D01*
X122720400Y-112289400D02*
X121966400Y-112289400D01*
X124790200Y-113868200D02*
X124790200Y-113385600D01*
X123128387Y-116143085D02*
X123128387Y-115306652D01*
X123453589Y-123986989D02*
X123453589Y-120491242D01*
X124663200Y-125196600D02*
X123453589Y-123986989D01*
X124663200Y-121259600D02*
X124663200Y-122656600D01*
X124663200Y-118872000D02*
X124663200Y-116588600D01*
X124663200Y-121259600D02*
X124663200Y-118872000D01*
X124663200Y-116588600D02*
X127012400Y-114239400D01*
X127012400Y-114239400D02*
X127766400Y-114239400D01*
D20*
X121216400Y-118139400D02*
X121966400Y-118139400D01*
X120226916Y-117847284D02*
X120397232Y-118017600D01*
X120086626Y-117987574D02*
X120226916Y-117847284D01*
X120397232Y-118017600D02*
X121094600Y-118017600D01*
X121094600Y-118017600D02*
X121216400Y-118139400D01*
X120654574Y-117419626D02*
X120514284Y-117559916D01*
X120514284Y-117559916D02*
X120565568Y-117611200D01*
X120565568Y-117611200D02*
X121094600Y-117611200D01*
X121094600Y-117611200D02*
X121216400Y-117489400D01*
X121216400Y-117489400D02*
X121966400Y-117489400D01*
D19*
X124218418Y-115722398D02*
X126351416Y-113589400D01*
X126351416Y-113589400D02*
X127766400Y-113589400D01*
X121966400Y-116839400D02*
X121411400Y-116839400D01*
X121411400Y-116839400D02*
X120853200Y-116281200D01*
X123656791Y-113990399D02*
X123956790Y-113690400D01*
X123407790Y-114239400D02*
X123656791Y-113990399D01*
X121966400Y-114239400D02*
X123407790Y-114239400D01*
X127469379Y-118789980D02*
X127469379Y-118436421D01*
X127469379Y-118436421D02*
X127766400Y-118139400D01*
X127914400Y-118287400D02*
X127766400Y-118139400D01*
X115747800Y-125196600D02*
X119583200Y-125196600D01*
X123928113Y-115117597D02*
X123560197Y-115485513D01*
X123560197Y-115964224D02*
X124058390Y-116462417D01*
X127012400Y-112289400D02*
X124184203Y-115117597D01*
X127766400Y-112289400D02*
X127012400Y-112289400D01*
X124058390Y-116462417D02*
X124058390Y-120357283D01*
X123560197Y-115485513D02*
X123560197Y-115964224D01*
X124058390Y-120357283D02*
X124058390Y-120781547D01*
X124184203Y-115117597D02*
X123928113Y-115117597D01*
G36*
X119995777Y-115907965D02*
X119918362Y-116094401D01*
X119918038Y-116466367D01*
X120025506Y-116726460D01*
X119862382Y-116889299D01*
X119772531Y-117105684D01*
X119557683Y-117194457D01*
X119294434Y-117457247D01*
X119151788Y-117800775D01*
X119151600Y-118017000D01*
X118825400Y-118017000D01*
X118825400Y-119050000D01*
X120091563Y-119050000D01*
X120181155Y-118922657D01*
X120271793Y-118922736D01*
X120615569Y-118780691D01*
X120642106Y-118754200D01*
X120836143Y-118754200D01*
X120934515Y-118819930D01*
X121088407Y-118850541D01*
X121218635Y-118937557D01*
X121466400Y-118986840D01*
X122466400Y-118986840D01*
X122714165Y-118937557D01*
X122732799Y-118925106D01*
X122732799Y-120284066D01*
X122691589Y-120491242D01*
X122691589Y-121288358D01*
X122482226Y-121201642D01*
X122250200Y-121322783D01*
X122250200Y-122529600D01*
X122270200Y-122529600D01*
X122270200Y-122783600D01*
X122250200Y-122783600D01*
X122250200Y-122803600D01*
X121996200Y-122803600D01*
X121996200Y-122783600D01*
X121976200Y-122783600D01*
X121976200Y-122529600D01*
X121996200Y-122529600D01*
X121996200Y-121322783D01*
X121764174Y-121201642D01*
X121348253Y-121373912D01*
X120916379Y-121768110D01*
X120858864Y-121890828D01*
X120642870Y-121567571D01*
X120156689Y-121242715D01*
X119583200Y-121128641D01*
X119009711Y-121242715D01*
X118523530Y-121567571D01*
X118198674Y-122053752D01*
X118084600Y-122627241D01*
X118084600Y-122685959D01*
X118198674Y-123259448D01*
X118511104Y-123727032D01*
X118471835Y-123734843D01*
X118261791Y-123875191D01*
X118121443Y-124085235D01*
X118072160Y-124333000D01*
X118072160Y-124434600D01*
X117411240Y-124434600D01*
X117411240Y-124180600D01*
X117361957Y-123932835D01*
X117221609Y-123722791D01*
X117078928Y-123627454D01*
X117305470Y-123288410D01*
X117431145Y-122656600D01*
X117305470Y-122024790D01*
X116947578Y-121489167D01*
X116766692Y-121368302D01*
X117263816Y-120871178D01*
X117442762Y-120603367D01*
X117505600Y-120287461D01*
X117505599Y-120287456D01*
X117505599Y-120005814D01*
X117737155Y-120200099D01*
X118171400Y-120337000D01*
X118571400Y-120337000D01*
X118571400Y-119304000D01*
X118825400Y-119304000D01*
X118825400Y-120337000D01*
X119225400Y-120337000D01*
X119659645Y-120200099D01*
X120008446Y-119907441D01*
X120217364Y-119482810D01*
X120091563Y-119304000D01*
X118825400Y-119304000D01*
X118571400Y-119304000D01*
X118551400Y-119304000D01*
X118551400Y-119050000D01*
X118571400Y-119050000D01*
X118571400Y-118017000D01*
X118240550Y-118017000D01*
X118333233Y-117793794D01*
X118333567Y-117411882D01*
X118187723Y-117058914D01*
X118076061Y-116947057D01*
X119555465Y-115467653D01*
X119995777Y-115907965D01*
X119995777Y-115907965D01*
G37*
X119995777Y-115907965D02*
X119918362Y-116094401D01*
X119918038Y-116466367D01*
X120025506Y-116726460D01*
X119862382Y-116889299D01*
X119772531Y-117105684D01*
X119557683Y-117194457D01*
X119294434Y-117457247D01*
X119151788Y-117800775D01*
X119151600Y-118017000D01*
X118825400Y-118017000D01*
X118825400Y-119050000D01*
X120091563Y-119050000D01*
X120181155Y-118922657D01*
X120271793Y-118922736D01*
X120615569Y-118780691D01*
X120642106Y-118754200D01*
X120836143Y-118754200D01*
X120934515Y-118819930D01*
X121088407Y-118850541D01*
X121218635Y-118937557D01*
X121466400Y-118986840D01*
X122466400Y-118986840D01*
X122714165Y-118937557D01*
X122732799Y-118925106D01*
X122732799Y-120284066D01*
X122691589Y-120491242D01*
X122691589Y-121288358D01*
X122482226Y-121201642D01*
X122250200Y-121322783D01*
X122250200Y-122529600D01*
X122270200Y-122529600D01*
X122270200Y-122783600D01*
X122250200Y-122783600D01*
X122250200Y-122803600D01*
X121996200Y-122803600D01*
X121996200Y-122783600D01*
X121976200Y-122783600D01*
X121976200Y-122529600D01*
X121996200Y-122529600D01*
X121996200Y-121322783D01*
X121764174Y-121201642D01*
X121348253Y-121373912D01*
X120916379Y-121768110D01*
X120858864Y-121890828D01*
X120642870Y-121567571D01*
X120156689Y-121242715D01*
X119583200Y-121128641D01*
X119009711Y-121242715D01*
X118523530Y-121567571D01*
X118198674Y-122053752D01*
X118084600Y-122627241D01*
X118084600Y-122685959D01*
X118198674Y-123259448D01*
X118511104Y-123727032D01*
X118471835Y-123734843D01*
X118261791Y-123875191D01*
X118121443Y-124085235D01*
X118072160Y-124333000D01*
X118072160Y-124434600D01*
X117411240Y-124434600D01*
X117411240Y-124180600D01*
X117361957Y-123932835D01*
X117221609Y-123722791D01*
X117078928Y-123627454D01*
X117305470Y-123288410D01*
X117431145Y-122656600D01*
X117305470Y-122024790D01*
X116947578Y-121489167D01*
X116766692Y-121368302D01*
X117263816Y-120871178D01*
X117442762Y-120603367D01*
X117505600Y-120287461D01*
X117505599Y-120287456D01*
X117505599Y-120005814D01*
X117737155Y-120200099D01*
X118171400Y-120337000D01*
X118571400Y-120337000D01*
X118571400Y-119304000D01*
X118825400Y-119304000D01*
X118825400Y-120337000D01*
X119225400Y-120337000D01*
X119659645Y-120200099D01*
X120008446Y-119907441D01*
X120217364Y-119482810D01*
X120091563Y-119304000D01*
X118825400Y-119304000D01*
X118571400Y-119304000D01*
X118551400Y-119304000D01*
X118551400Y-119050000D01*
X118571400Y-119050000D01*
X118571400Y-118017000D01*
X118240550Y-118017000D01*
X118333233Y-117793794D01*
X118333567Y-117411882D01*
X118187723Y-117058914D01*
X118076061Y-116947057D01*
X119555465Y-115467653D01*
X119995777Y-115907965D01*
G36*
X126668243Y-115741635D02*
X126663358Y-115766192D01*
X126631400Y-115798150D01*
X126631400Y-115865710D01*
X126639617Y-115885548D01*
X126618960Y-115989400D01*
X126618960Y-116389400D01*
X126643824Y-116514400D01*
X126618960Y-116639400D01*
X126618960Y-117039400D01*
X126643824Y-117164400D01*
X126618960Y-117289400D01*
X126618960Y-117689400D01*
X126643824Y-117814400D01*
X126618960Y-117939400D01*
X126618960Y-118339400D01*
X126627094Y-118380291D01*
X126534541Y-118603181D01*
X126534217Y-118975147D01*
X126676262Y-119318923D01*
X126939052Y-119582172D01*
X127282580Y-119724818D01*
X127654546Y-119725142D01*
X127998322Y-119583097D01*
X128261571Y-119320307D01*
X128290000Y-119251843D01*
X128290000Y-121608174D01*
X128262870Y-121567571D01*
X127776689Y-121242715D01*
X127203200Y-121128641D01*
X126629711Y-121242715D01*
X126143530Y-121567571D01*
X125933200Y-121882352D01*
X125722870Y-121567571D01*
X125425200Y-121368674D01*
X125425200Y-116904230D01*
X126663029Y-115666402D01*
X126718512Y-115666402D01*
X126668243Y-115741635D01*
X126668243Y-115741635D01*
G37*
X126668243Y-115741635D02*
X126663358Y-115766192D01*
X126631400Y-115798150D01*
X126631400Y-115865710D01*
X126639617Y-115885548D01*
X126618960Y-115989400D01*
X126618960Y-116389400D01*
X126643824Y-116514400D01*
X126618960Y-116639400D01*
X126618960Y-117039400D01*
X126643824Y-117164400D01*
X126618960Y-117289400D01*
X126618960Y-117689400D01*
X126643824Y-117814400D01*
X126618960Y-117939400D01*
X126618960Y-118339400D01*
X126627094Y-118380291D01*
X126534541Y-118603181D01*
X126534217Y-118975147D01*
X126676262Y-119318923D01*
X126939052Y-119582172D01*
X127282580Y-119724818D01*
X127654546Y-119725142D01*
X127998322Y-119583097D01*
X128261571Y-119320307D01*
X128290000Y-119251843D01*
X128290000Y-121608174D01*
X128262870Y-121567571D01*
X127776689Y-121242715D01*
X127203200Y-121128641D01*
X126629711Y-121242715D01*
X126143530Y-121567571D01*
X125933200Y-121882352D01*
X125722870Y-121567571D01*
X125425200Y-121368674D01*
X125425200Y-116904230D01*
X126663029Y-115666402D01*
X126718512Y-115666402D01*
X126668243Y-115741635D01*
G36*
X128290000Y-111446654D02*
X128266400Y-111441960D01*
X127266400Y-111441960D01*
X127018635Y-111491243D01*
X126944229Y-111540960D01*
X126720796Y-111585403D01*
X126473585Y-111750584D01*
X125348389Y-112875780D01*
X125329015Y-112846785D01*
X124232815Y-111750585D01*
X124054728Y-111631591D01*
X123985605Y-111585404D01*
X123694000Y-111527400D01*
X122768277Y-111527400D01*
X122714165Y-111491243D01*
X122466400Y-111441960D01*
X121466400Y-111441960D01*
X121218635Y-111491243D01*
X121008591Y-111631591D01*
X120868243Y-111841635D01*
X120818960Y-112089400D01*
X120818960Y-112489400D01*
X120843824Y-112614400D01*
X120818960Y-112739400D01*
X120818960Y-113139400D01*
X120843824Y-113264400D01*
X120818960Y-113389400D01*
X120818960Y-113789400D01*
X120843824Y-113914400D01*
X120839976Y-113933744D01*
X120772846Y-113771276D01*
X120510056Y-113508027D01*
X120166528Y-113365381D01*
X119794562Y-113365057D01*
X119504744Y-113484807D01*
X119250384Y-113535403D01*
X119239560Y-113537556D01*
X118971748Y-113716502D01*
X118971746Y-113716505D01*
X116096382Y-116591868D01*
X115917436Y-116859679D01*
X115864181Y-117127415D01*
X115854599Y-117175585D01*
X115854599Y-118041968D01*
X115775400Y-118017000D01*
X115375400Y-118017000D01*
X115375400Y-119050000D01*
X115395400Y-119050000D01*
X115395400Y-119304000D01*
X115375400Y-119304000D01*
X115375400Y-120337000D01*
X115463126Y-120337000D01*
X115164083Y-120636043D01*
X114985137Y-120903854D01*
X114942286Y-121119283D01*
X114922300Y-121219760D01*
X114922300Y-121239082D01*
X114710000Y-121380937D01*
X114710000Y-120333406D01*
X114721400Y-120337000D01*
X115121400Y-120337000D01*
X115121400Y-119304000D01*
X115101400Y-119304000D01*
X115101400Y-119050000D01*
X115121400Y-119050000D01*
X115121400Y-118017000D01*
X114721400Y-118017000D01*
X114710000Y-118020594D01*
X114710000Y-113792118D01*
X116413233Y-113792118D01*
X116559077Y-114145086D01*
X116828893Y-114415374D01*
X117181606Y-114561833D01*
X117563518Y-114562167D01*
X117916486Y-114416323D01*
X118186774Y-114146507D01*
X118333233Y-113793794D01*
X118333567Y-113411882D01*
X118240647Y-113187000D01*
X118571400Y-113187000D01*
X118571400Y-112154000D01*
X118825400Y-112154000D01*
X118825400Y-113187000D01*
X119225400Y-113187000D01*
X119659645Y-113050099D01*
X120008446Y-112757441D01*
X120217364Y-112332810D01*
X120091563Y-112154000D01*
X118825400Y-112154000D01*
X118571400Y-112154000D01*
X117305237Y-112154000D01*
X117179436Y-112332810D01*
X117331539Y-112641963D01*
X117183282Y-112641833D01*
X116830314Y-112787677D01*
X116560026Y-113057493D01*
X116413567Y-113410206D01*
X116413233Y-113792118D01*
X114710000Y-113792118D01*
X114710000Y-113183406D01*
X114721400Y-113187000D01*
X115121400Y-113187000D01*
X115121400Y-112154000D01*
X115375400Y-112154000D01*
X115375400Y-113187000D01*
X115775400Y-113187000D01*
X116209645Y-113050099D01*
X116558446Y-112757441D01*
X116767364Y-112332810D01*
X116641563Y-112154000D01*
X115375400Y-112154000D01*
X115121400Y-112154000D01*
X115101400Y-112154000D01*
X115101400Y-111900000D01*
X115121400Y-111900000D01*
X115121400Y-110867000D01*
X115375400Y-110867000D01*
X115375400Y-111900000D01*
X116641563Y-111900000D01*
X116767364Y-111721190D01*
X117179436Y-111721190D01*
X117305237Y-111900000D01*
X118571400Y-111900000D01*
X118571400Y-110867000D01*
X118825400Y-110867000D01*
X118825400Y-111900000D01*
X120091563Y-111900000D01*
X120217364Y-111721190D01*
X120008446Y-111296559D01*
X119659645Y-111003901D01*
X119225400Y-110867000D01*
X118825400Y-110867000D01*
X118571400Y-110867000D01*
X118171400Y-110867000D01*
X117737155Y-111003901D01*
X117388354Y-111296559D01*
X117179436Y-111721190D01*
X116767364Y-111721190D01*
X116558446Y-111296559D01*
X116209645Y-111003901D01*
X115775400Y-110867000D01*
X115375400Y-110867000D01*
X115121400Y-110867000D01*
X114721400Y-110867000D01*
X114710000Y-110870594D01*
X114710000Y-110710000D01*
X128290000Y-110710000D01*
X128290000Y-111446654D01*
X128290000Y-111446654D01*
G37*
X128290000Y-111446654D02*
X128266400Y-111441960D01*
X127266400Y-111441960D01*
X127018635Y-111491243D01*
X126944229Y-111540960D01*
X126720796Y-111585403D01*
X126473585Y-111750584D01*
X125348389Y-112875780D01*
X125329015Y-112846785D01*
X124232815Y-111750585D01*
X124054728Y-111631591D01*
X123985605Y-111585404D01*
X123694000Y-111527400D01*
X122768277Y-111527400D01*
X122714165Y-111491243D01*
X122466400Y-111441960D01*
X121466400Y-111441960D01*
X121218635Y-111491243D01*
X121008591Y-111631591D01*
X120868243Y-111841635D01*
X120818960Y-112089400D01*
X120818960Y-112489400D01*
X120843824Y-112614400D01*
X120818960Y-112739400D01*
X120818960Y-113139400D01*
X120843824Y-113264400D01*
X120818960Y-113389400D01*
X120818960Y-113789400D01*
X120843824Y-113914400D01*
X120839976Y-113933744D01*
X120772846Y-113771276D01*
X120510056Y-113508027D01*
X120166528Y-113365381D01*
X119794562Y-113365057D01*
X119504744Y-113484807D01*
X119250384Y-113535403D01*
X119239560Y-113537556D01*
X118971748Y-113716502D01*
X118971746Y-113716505D01*
X116096382Y-116591868D01*
X115917436Y-116859679D01*
X115864181Y-117127415D01*
X115854599Y-117175585D01*
X115854599Y-118041968D01*
X115775400Y-118017000D01*
X115375400Y-118017000D01*
X115375400Y-119050000D01*
X115395400Y-119050000D01*
X115395400Y-119304000D01*
X115375400Y-119304000D01*
X115375400Y-120337000D01*
X115463126Y-120337000D01*
X115164083Y-120636043D01*
X114985137Y-120903854D01*
X114942286Y-121119283D01*
X114922300Y-121219760D01*
X114922300Y-121239082D01*
X114710000Y-121380937D01*
X114710000Y-120333406D01*
X114721400Y-120337000D01*
X115121400Y-120337000D01*
X115121400Y-119304000D01*
X115101400Y-119304000D01*
X115101400Y-119050000D01*
X115121400Y-119050000D01*
X115121400Y-118017000D01*
X114721400Y-118017000D01*
X114710000Y-118020594D01*
X114710000Y-113792118D01*
X116413233Y-113792118D01*
X116559077Y-114145086D01*
X116828893Y-114415374D01*
X117181606Y-114561833D01*
X117563518Y-114562167D01*
X117916486Y-114416323D01*
X118186774Y-114146507D01*
X118333233Y-113793794D01*
X118333567Y-113411882D01*
X118240647Y-113187000D01*
X118571400Y-113187000D01*
X118571400Y-112154000D01*
X118825400Y-112154000D01*
X118825400Y-113187000D01*
X119225400Y-113187000D01*
X119659645Y-113050099D01*
X120008446Y-112757441D01*
X120217364Y-112332810D01*
X120091563Y-112154000D01*
X118825400Y-112154000D01*
X118571400Y-112154000D01*
X117305237Y-112154000D01*
X117179436Y-112332810D01*
X117331539Y-112641963D01*
X117183282Y-112641833D01*
X116830314Y-112787677D01*
X116560026Y-113057493D01*
X116413567Y-113410206D01*
X116413233Y-113792118D01*
X114710000Y-113792118D01*
X114710000Y-113183406D01*
X114721400Y-113187000D01*
X115121400Y-113187000D01*
X115121400Y-112154000D01*
X115375400Y-112154000D01*
X115375400Y-113187000D01*
X115775400Y-113187000D01*
X116209645Y-113050099D01*
X116558446Y-112757441D01*
X116767364Y-112332810D01*
X116641563Y-112154000D01*
X115375400Y-112154000D01*
X115121400Y-112154000D01*
X115101400Y-112154000D01*
X115101400Y-111900000D01*
X115121400Y-111900000D01*
X115121400Y-110867000D01*
X115375400Y-110867000D01*
X115375400Y-111900000D01*
X116641563Y-111900000D01*
X116767364Y-111721190D01*
X117179436Y-111721190D01*
X117305237Y-111900000D01*
X118571400Y-111900000D01*
X118571400Y-110867000D01*
X118825400Y-110867000D01*
X118825400Y-111900000D01*
X120091563Y-111900000D01*
X120217364Y-111721190D01*
X120008446Y-111296559D01*
X119659645Y-111003901D01*
X119225400Y-110867000D01*
X118825400Y-110867000D01*
X118571400Y-110867000D01*
X118171400Y-110867000D01*
X117737155Y-111003901D01*
X117388354Y-111296559D01*
X117179436Y-111721190D01*
X116767364Y-111721190D01*
X116558446Y-111296559D01*
X116209645Y-111003901D01*
X115775400Y-110867000D01*
X115375400Y-110867000D01*
X115121400Y-110867000D01*
X114721400Y-110867000D01*
X114710000Y-110870594D01*
X114710000Y-110710000D01*
X128290000Y-110710000D01*
X128290000Y-111446654D01*
M02*
