G04 #@! TF.FileFunction,Copper,L2,Bot,Signal*
%FSLAX46Y46*%
G04 Gerber Fmt 4.6, Leading zero omitted, Abs format (unit mm)*
G04 Created by KiCad (PCBNEW 0.201603171416+6624~43~ubuntu15.10.1-product) date fre 18 mar 2016 23:00:41 CET*
%MOMM*%
G01*
G04 APERTURE LIST*
%ADD10C,0.100000*%
%ADD11R,0.400000X1.200000*%
%ADD12O,1.850000X1.050000*%
%ADD13O,1.727200X1.727200*%
%ADD14R,1.727200X1.727200*%
%ADD15R,2.032000X2.032000*%
%ADD16O,2.032000X2.032000*%
%ADD17C,0.600000*%
%ADD18C,0.381000*%
%ADD19C,0.254000*%
G04 APERTURE END LIST*
D10*
D11*
X127596900Y-117992200D03*
X126961900Y-117992200D03*
X126326900Y-117992200D03*
X125691900Y-117992200D03*
X125056900Y-117992200D03*
X124421900Y-117992200D03*
X123786900Y-117992200D03*
X123151900Y-117992200D03*
X123151900Y-112792200D03*
X123786900Y-112792200D03*
X124421900Y-112792200D03*
X125056900Y-112792200D03*
X125691900Y-112792200D03*
X126326900Y-112792200D03*
X126961900Y-112792200D03*
X127596900Y-112792200D03*
D12*
X115756400Y-110718400D03*
X115756400Y-117868400D03*
X119206400Y-110718400D03*
X119206400Y-117868400D03*
D13*
X128803400Y-122859800D03*
X128803400Y-125399800D03*
X126263400Y-122859800D03*
X126263400Y-125399800D03*
D14*
X116103400Y-125399800D03*
D13*
X116103400Y-122859800D03*
X118643400Y-125399800D03*
X118643400Y-122859800D03*
X121183400Y-125399800D03*
X121183400Y-122859800D03*
X123723400Y-125399800D03*
X123723400Y-122859800D03*
D15*
X118668800Y-120116600D03*
D16*
X116128800Y-120116600D03*
D17*
X125171200Y-111125000D03*
X124358400Y-119380000D03*
X120904000Y-111836200D03*
X121208800Y-114334400D03*
X121208800Y-113554400D03*
X126337093Y-119250676D03*
X124510800Y-113919000D03*
X126441200Y-111556800D03*
X123469400Y-119278400D03*
D18*
X125691900Y-112792200D02*
X125691900Y-111645700D01*
X125691900Y-111645700D02*
X125171200Y-111125000D01*
X125056900Y-117992200D02*
X125056900Y-118681500D01*
X125056900Y-118681500D02*
X124358400Y-119380000D01*
X125056900Y-111964258D02*
X125056900Y-112792200D01*
X124916541Y-111823899D02*
X125056900Y-111964258D01*
X121340565Y-111823899D02*
X124916541Y-111823899D01*
X121328264Y-111836200D02*
X121340565Y-111823899D01*
X120904000Y-111836200D02*
X121328264Y-111836200D01*
D19*
X122046999Y-124536201D02*
X121183400Y-125399800D01*
X122554999Y-124028201D02*
X122046999Y-124536201D01*
X127596900Y-117992200D02*
X127596900Y-118846200D01*
X127596900Y-118846200D02*
X124891801Y-121551299D01*
X124891801Y-121551299D02*
X124891801Y-123420633D01*
X124891801Y-123420633D02*
X124284233Y-124028201D01*
X124284233Y-124028201D02*
X122554999Y-124028201D01*
X125691900Y-118846200D02*
X125691900Y-117992200D01*
X125691900Y-118941608D02*
X125691900Y-118846200D01*
X122637307Y-121996201D02*
X125691900Y-118941608D01*
X122046999Y-121996201D02*
X122637307Y-121996201D01*
X121183400Y-122859800D02*
X122046999Y-121996201D01*
X121381801Y-114161399D02*
X121208800Y-114334400D01*
X123151900Y-115609200D02*
X122947716Y-115609200D01*
X121499915Y-114161399D02*
X121381801Y-114161399D01*
X123151900Y-117992200D02*
X123151900Y-115609200D01*
X122947716Y-115609200D02*
X121499915Y-114161399D01*
X121381801Y-113727401D02*
X121208800Y-113554400D01*
X123151900Y-112792200D02*
X123151900Y-115175200D01*
X123151900Y-115175200D02*
X123127484Y-115175200D01*
X123127484Y-115175200D02*
X121679685Y-113727401D01*
X121679685Y-113727401D02*
X121381801Y-113727401D01*
X126326900Y-119240483D02*
X126337093Y-119250676D01*
X126326900Y-117992200D02*
X126326900Y-119240483D01*
X123786900Y-112792200D02*
X123786900Y-113646200D01*
X123786900Y-113646200D02*
X124059700Y-113919000D01*
X124059700Y-113919000D02*
X124510800Y-113919000D01*
X126441200Y-111556800D02*
X126441200Y-112677900D01*
X126441200Y-112677900D02*
X126326900Y-112792200D01*
X126365000Y-112754100D02*
X126326900Y-112792200D01*
X123469400Y-119278400D02*
X123786900Y-118960900D01*
X123786900Y-118960900D02*
X123786900Y-117992200D01*
X126961900Y-111938200D02*
X126961900Y-112792200D01*
M02*
