M48
;DRILL file {KiCad no-vcs-found-7659~57~ubuntu16.10.1} date Sat Feb 18 23:39:37 2017
;FORMAT={-:-/ absolute / metric / decimal}
FMAT,2
METRIC,TZ
T1C0.400
T2C0.450
T3C1.016
T4C0.650
%
G90
G05
M71
T1
X119.98Y-114.3
X120.087Y-117.988
X120.655Y-117.42
X120.737Y-114.478
X120.853Y-116.281
X123.957Y-113.69
X124.058Y-120.782
X124.218Y-115.722
X126.009Y-116.688
X127.469Y-118.79
T3
X115.748Y-122.657
X115.748Y-125.197
X119.583Y-122.657
X119.583Y-125.197
X122.123Y-122.657
X122.123Y-125.197
X124.663Y-122.657
X124.663Y-125.197
X127.203Y-122.657
X127.203Y-125.197
T4
X117.373Y-113.602
X117.373Y-117.602
T2
X115.648Y-112.027G85X114.848Y-112.027
G05
X115.648Y-119.177G85X114.848Y-119.177
G05
X119.098Y-112.027G85X118.298Y-112.027
G05
X119.098Y-119.177G85X118.298Y-119.177
G05
T0
M30
