G04 #@! TF.GenerationSoftware,KiCad,Pcbnew,no-vcs-found-7659~57~ubuntu16.10.1*
G04 #@! TF.CreationDate,2017-02-18T23:39:30+01:00*
G04 #@! TF.ProjectId,MysX2USB,4D797358325553422E6B696361645F70,rev?*
G04 #@! TF.FileFunction,Legend,Bot*
G04 #@! TF.FilePolarity,Positive*
%FSLAX46Y46*%
G04 Gerber Fmt 4.6, Leading zero omitted, Abs format (unit mm)*
G04 Created by KiCad (PCBNEW no-vcs-found-7659~57~ubuntu16.10.1) date Sat Feb 18 23:39:30 2017*
%MOMM*%
%LPD*%
G01*
G04 APERTURE LIST*
%ADD10C,0.100000*%
%ADD11C,0.150000*%
G04 APERTURE END LIST*
D10*
D11*
X120853200Y-126466600D02*
X128473200Y-126466600D01*
X128473200Y-126466600D02*
X128473200Y-121386600D01*
X128473200Y-121386600D02*
X118313200Y-121386600D01*
X118313200Y-121386600D02*
X118313200Y-123926600D01*
X118033200Y-125196600D02*
X118033200Y-126746600D01*
X118313200Y-123926600D02*
X120853200Y-123926600D01*
X120853200Y-123926600D02*
X120853200Y-126466600D01*
X118033200Y-126746600D02*
X119583200Y-126746600D01*
X127191400Y-111839400D02*
X127191400Y-111864400D01*
X122541400Y-111839400D02*
X122541400Y-111864400D01*
X122541400Y-118589400D02*
X122541400Y-118564400D01*
X127191400Y-118589400D02*
X127191400Y-118564400D01*
X127191400Y-111839400D02*
X122541400Y-111839400D01*
X127191400Y-118589400D02*
X122541400Y-118589400D01*
X127191400Y-111864400D02*
X128266400Y-111864400D01*
X116733580Y-123188504D02*
X115733580Y-123188504D01*
X115733580Y-123569457D01*
X115781200Y-123664695D01*
X115828819Y-123712314D01*
X115924057Y-123759933D01*
X116066914Y-123759933D01*
X116162152Y-123712314D01*
X116209771Y-123664695D01*
X116257390Y-123569457D01*
X116257390Y-123188504D01*
X115828819Y-124140885D02*
X115781200Y-124188504D01*
X115733580Y-124283742D01*
X115733580Y-124521838D01*
X115781200Y-124617076D01*
X115828819Y-124664695D01*
X115924057Y-124712314D01*
X116019295Y-124712314D01*
X116162152Y-124664695D01*
X116733580Y-124093266D01*
X116733580Y-124712314D01*
X125628304Y-110366780D02*
X125628304Y-111176304D01*
X125580685Y-111271542D01*
X125533066Y-111319161D01*
X125437828Y-111366780D01*
X125247352Y-111366780D01*
X125152114Y-111319161D01*
X125104495Y-111271542D01*
X125056876Y-111176304D01*
X125056876Y-110366780D01*
X124056876Y-111366780D02*
X124628304Y-111366780D01*
X124342590Y-111366780D02*
X124342590Y-110366780D01*
X124437828Y-110509638D01*
X124533066Y-110604876D01*
X124628304Y-110652495D01*
M02*
