G04 #@! TF.FileFunction,Soldermask,Top*
%FSLAX46Y46*%
G04 Gerber Fmt 4.6, Leading zero omitted, Abs format (unit mm)*
G04 Created by KiCad (PCBNEW 0.201603171416+6624~43~ubuntu15.10.1-product) date fre 18 mar 2016 23:00:41 CET*
%MOMM*%
G01*
G04 APERTURE LIST*
%ADD10C,0.100000*%
%ADD11R,2.100000X0.800000*%
%ADD12O,2.250000X1.450000*%
%ADD13C,1.050000*%
%ADD14O,2.127200X2.127200*%
%ADD15R,2.127200X2.127200*%
%ADD16R,1.150000X1.200000*%
%ADD17R,1.197560X1.197560*%
%ADD18R,0.900000X1.300000*%
%ADD19R,2.432000X2.432000*%
%ADD20O,2.432000X2.432000*%
G04 APERTURE END LIST*
D10*
D11*
X118856400Y-114293400D03*
X118856400Y-114943400D03*
X118856400Y-113643400D03*
D10*
G36*
X117806400Y-112593400D02*
X119906400Y-112593400D01*
X119906400Y-113393400D01*
X117806400Y-113393400D01*
X117806400Y-112593400D01*
X117806400Y-112593400D01*
G37*
D11*
X118856400Y-115593400D03*
D12*
X115756400Y-110718400D03*
X115756400Y-117868400D03*
X119206400Y-110718400D03*
X119206400Y-117868400D03*
D13*
X117881400Y-112293400D03*
X117881400Y-116293400D03*
D14*
X128803400Y-122859800D03*
X128803400Y-125399800D03*
X126263400Y-122859800D03*
X126263400Y-125399800D03*
D15*
X116103400Y-125399800D03*
D14*
X116103400Y-122859800D03*
X118643400Y-125399800D03*
X118643400Y-122859800D03*
X121183400Y-125399800D03*
X121183400Y-122859800D03*
X123723400Y-125399800D03*
X123723400Y-122859800D03*
D16*
X123799600Y-116218400D03*
X123799600Y-114718400D03*
D17*
X127546100Y-112496600D03*
X126047500Y-112496600D03*
X127546100Y-117652800D03*
X126047500Y-117652800D03*
D18*
X126033400Y-114096800D03*
X127533400Y-114096800D03*
X126046800Y-116103400D03*
X127546800Y-116103400D03*
D19*
X118668800Y-120116600D03*
D20*
X116128800Y-120116600D03*
M02*
