G04 #@! TF.FileFunction,Copper,L2,Bot,Signal*
%FSLAX46Y46*%
G04 Gerber Fmt 4.6, Leading zero omitted, Abs format (unit mm)*
G04 Created by KiCad (PCBNEW 4.1.0-alpha+201609050731+7118~50~ubuntu16.04.1-product) date Sat Sep 10 22:59:24 2016*
%MOMM*%
%LPD*%
G01*
G04 APERTURE LIST*
%ADD10C,0.100000*%
%ADD11O,1.850000X1.050000*%
%ADD12R,2.032000X2.032000*%
%ADD13O,2.032000X2.032000*%
%ADD14R,1.727200X1.727200*%
%ADD15O,1.727200X1.727200*%
%ADD16R,1.000000X0.400000*%
%ADD17C,0.600000*%
%ADD18C,0.381000*%
%ADD19C,0.254000*%
%ADD20C,0.203200*%
G04 APERTURE END LIST*
D10*
D11*
X115248400Y-112027000D03*
X115248400Y-119177000D03*
X118698400Y-112027000D03*
X118698400Y-119177000D03*
D12*
X115747800Y-125196600D03*
D13*
X115747800Y-122656600D03*
D14*
X119583200Y-125196600D03*
D15*
X119583200Y-122656600D03*
X122123200Y-125196600D03*
X122123200Y-122656600D03*
X124663200Y-125196600D03*
X124663200Y-122656600D03*
X127203200Y-125196600D03*
X127203200Y-122656600D03*
D16*
X127766400Y-112289400D03*
X127766400Y-112939400D03*
X127766400Y-113589400D03*
X127766400Y-114239400D03*
X127766400Y-114889400D03*
X127766400Y-115539400D03*
X127766400Y-116189400D03*
X127766400Y-116839400D03*
X127766400Y-117489400D03*
X127766400Y-118139400D03*
X121966400Y-118139400D03*
X121966400Y-117489400D03*
X121966400Y-116839400D03*
X121966400Y-116189400D03*
X121966400Y-115539400D03*
X121966400Y-114889400D03*
X121966400Y-114239400D03*
X121966400Y-113589400D03*
X121966400Y-112939400D03*
X121966400Y-112289400D03*
D17*
X126009400Y-116687600D03*
X120736998Y-114477800D03*
X119979729Y-114300219D03*
X120086626Y-117987574D03*
X120654574Y-117419626D03*
X124218418Y-115722398D03*
X120853200Y-116281200D03*
X123956790Y-113690400D03*
X127469379Y-118789980D03*
D18*
X127766400Y-115539400D02*
X127157600Y-115539400D01*
X127157600Y-115539400D02*
X126009400Y-116687600D01*
X121966400Y-114889400D02*
X121148598Y-114889400D01*
X121148598Y-114889400D02*
X120736998Y-114477800D01*
X120794646Y-115539400D02*
X119979729Y-114724483D01*
X116680099Y-117175585D02*
X119555465Y-114300219D01*
X115747800Y-121219760D02*
X116680099Y-120287461D01*
X119979729Y-114724483D02*
X119979729Y-114300219D01*
X115747800Y-122656600D02*
X115747800Y-121219760D01*
X119555465Y-114300219D02*
X119979729Y-114300219D01*
X116680099Y-120287461D02*
X116680099Y-117175585D01*
X121966400Y-115539400D02*
X120794646Y-115539400D01*
D19*
X123799601Y-124333001D02*
X124663200Y-125196600D01*
X121765565Y-124028199D02*
X123494799Y-124028199D01*
X122771201Y-119112999D02*
X120954799Y-120929401D01*
X122771201Y-115663837D02*
X122771201Y-119112999D01*
X123749252Y-114685786D02*
X122771201Y-115663837D01*
X121966400Y-112289400D02*
X123694000Y-112289400D01*
X123972614Y-114685786D02*
X123749252Y-114685786D01*
X124790200Y-113868200D02*
X123972614Y-114685786D01*
X124790200Y-113385600D02*
X124790200Y-113868200D01*
X120954799Y-123217433D02*
X121765565Y-124028199D01*
X123694000Y-112289400D02*
X124790200Y-113385600D01*
X120954799Y-120929401D02*
X120954799Y-123217433D01*
X123494799Y-124028199D02*
X123799601Y-124333001D01*
X127766400Y-114239400D02*
X127012400Y-114239400D01*
X127012400Y-114239400D02*
X124663200Y-116588600D01*
X124663200Y-116588600D02*
X124663200Y-121435286D01*
X124663200Y-121435286D02*
X124663200Y-122656600D01*
D20*
X121216400Y-118139400D02*
X121966400Y-118139400D01*
X120226916Y-117847284D02*
X120397232Y-118017600D01*
X120086626Y-117987574D02*
X120226916Y-117847284D01*
X120397232Y-118017600D02*
X121094600Y-118017600D01*
X121094600Y-118017600D02*
X121216400Y-118139400D01*
X120654574Y-117419626D02*
X120514284Y-117559916D01*
X120514284Y-117559916D02*
X120565568Y-117611200D01*
X120565568Y-117611200D02*
X121094600Y-117611200D01*
X121094600Y-117611200D02*
X121216400Y-117489400D01*
X121216400Y-117489400D02*
X121966400Y-117489400D01*
D19*
X124218418Y-115722398D02*
X126351416Y-113589400D01*
X126351416Y-113589400D02*
X127766400Y-113589400D01*
X121966400Y-116839400D02*
X121411400Y-116839400D01*
X121411400Y-116839400D02*
X120853200Y-116281200D01*
X123656791Y-113990399D02*
X123956790Y-113690400D01*
X123407790Y-114239400D02*
X123656791Y-113990399D01*
X121966400Y-114239400D02*
X123407790Y-114239400D01*
X127469379Y-118789980D02*
X127469379Y-118436421D01*
X127469379Y-118436421D02*
X127766400Y-118139400D01*
X127914400Y-118287400D02*
X127766400Y-118139400D01*
X115747800Y-125196600D02*
X119583200Y-125196600D01*
X123494799Y-123217433D02*
X123494799Y-115550911D01*
X123494799Y-115550911D02*
X123928113Y-115117597D01*
X127012400Y-112289400D02*
X127766400Y-112289400D01*
X124184203Y-115117597D02*
X127012400Y-112289400D01*
X126034799Y-124028199D02*
X124305565Y-124028199D01*
X123928113Y-115117597D02*
X124184203Y-115117597D01*
X127203200Y-125196600D02*
X126034799Y-124028199D01*
X124305565Y-124028199D02*
X123494799Y-123217433D01*
M02*
