G04 #@! TF.FileFunction,Copper,L1,Top,Signal*
%FSLAX46Y46*%
G04 Gerber Fmt 4.6, Leading zero omitted, Abs format (unit mm)*
G04 Created by KiCad (PCBNEW 0.201603171416+6624~43~ubuntu15.10.1-product) date man 21 mar 2016 10:26:27 CET*
%MOMM*%
G01*
G04 APERTURE LIST*
%ADD10C,0.100000*%
%ADD11R,1.700000X0.400000*%
%ADD12O,1.850000X1.050000*%
%ADD13R,0.750000X0.800000*%
%ADD14R,0.797560X0.797560*%
%ADD15R,0.500000X0.900000*%
%ADD16R,2.032000X2.032000*%
%ADD17O,2.032000X2.032000*%
%ADD18O,1.727200X1.727200*%
%ADD19R,1.727200X1.727200*%
%ADD20C,0.600000*%
%ADD21C,0.381000*%
%ADD22C,0.254000*%
G04 APERTURE END LIST*
D10*
D11*
X118856400Y-114293400D03*
X118856400Y-114943400D03*
X118856400Y-113643400D03*
D10*
G36*
X118006400Y-112793400D02*
X119706400Y-112793400D01*
X119706400Y-113193400D01*
X118006400Y-113193400D01*
X118006400Y-112793400D01*
X118006400Y-112793400D01*
G37*
D11*
X118856400Y-115593400D03*
D12*
X115756400Y-110718400D03*
X115756400Y-117868400D03*
X119206400Y-110718400D03*
X119206400Y-117868400D03*
D13*
X122682000Y-115659600D03*
X122682000Y-114159600D03*
D14*
X126428500Y-111937800D03*
X124929900Y-111937800D03*
X126428500Y-117094000D03*
X124929900Y-117094000D03*
D15*
X124915800Y-113538000D03*
X126415800Y-113538000D03*
X124929200Y-115544600D03*
X126429200Y-115544600D03*
D16*
X118668800Y-120116600D03*
D17*
X116128800Y-120116600D03*
D18*
X126263400Y-122859800D03*
X126263400Y-125399800D03*
D19*
X116103400Y-125399800D03*
D18*
X116103400Y-122859800D03*
X118643400Y-125399800D03*
X118643400Y-122859800D03*
X121183400Y-125399800D03*
X121183400Y-122859800D03*
X123723400Y-125399800D03*
X123723400Y-122859800D03*
D20*
X123240800Y-118821200D03*
X120904000Y-111836200D03*
X120777000Y-114537600D03*
X120785510Y-113743915D03*
X125219493Y-118691876D03*
X123393200Y-113360200D03*
X125272800Y-111150400D03*
X123534802Y-116034455D03*
D21*
X118856400Y-114943400D02*
X120087400Y-114943400D01*
X120087400Y-114943400D02*
X120803600Y-115659600D01*
X120803600Y-115659600D02*
X122682000Y-115659600D01*
X121556498Y-119946702D02*
X122115298Y-119946702D01*
X122115298Y-119946702D02*
X123240800Y-118821200D01*
X118643400Y-122859800D02*
X121556498Y-119946702D01*
X118856400Y-112993400D02*
X119746800Y-112993400D01*
X119746800Y-112993400D02*
X120904000Y-111836200D01*
X116128800Y-120116600D02*
X117144799Y-119100601D01*
X117144799Y-119100601D02*
X117144799Y-113755001D01*
X117144799Y-113755001D02*
X117906400Y-112993400D01*
X117906400Y-112993400D02*
X118856400Y-112993400D01*
D22*
X120532800Y-114293400D02*
X120777000Y-114537600D01*
X118856400Y-114293400D02*
X120532800Y-114293400D01*
X118856400Y-113643400D02*
X120684995Y-113643400D01*
X120684995Y-113643400D02*
X120785510Y-113743915D01*
X124929200Y-115544600D02*
X125433200Y-115544600D01*
X125519492Y-118391877D02*
X125219493Y-118691876D01*
X125433200Y-115544600D02*
X125633481Y-115744881D01*
X125633481Y-115744881D02*
X125633481Y-118277888D01*
X125633481Y-118277888D02*
X125519492Y-118391877D01*
X124929200Y-115544600D02*
X124929200Y-113551400D01*
X124929200Y-113551400D02*
X124915800Y-113538000D01*
X123393200Y-113360200D02*
X124738000Y-113360200D01*
X124738000Y-113360200D02*
X124915800Y-113538000D01*
X123393200Y-113360200D02*
X123393200Y-113448400D01*
X123393200Y-113448400D02*
X122682000Y-114159600D01*
X126415800Y-113538000D02*
X126415800Y-111950500D01*
X126415800Y-111950500D02*
X126428500Y-111937800D01*
X124929900Y-111937800D02*
X124929900Y-111493300D01*
X124929900Y-111493300D02*
X125272800Y-111150400D01*
X126429200Y-115544600D02*
X126429200Y-117093300D01*
X126429200Y-117093300D02*
X126428500Y-117094000D01*
X124277120Y-117094000D02*
X123534802Y-116351682D01*
X124929900Y-117094000D02*
X124277120Y-117094000D01*
X123534802Y-116351682D02*
X123534802Y-116034455D01*
X116103400Y-125399800D02*
X117221000Y-125399800D01*
X117221000Y-125399800D02*
X117474999Y-125145801D01*
X117474999Y-121310401D02*
X118668800Y-120116600D01*
X117474999Y-125145801D02*
X117474999Y-121310401D01*
G36*
X118770400Y-122732800D02*
X118790400Y-122732800D01*
X118790400Y-122986800D01*
X118770400Y-122986800D01*
X118770400Y-123006800D01*
X118516400Y-123006800D01*
X118516400Y-122986800D01*
X118496400Y-122986800D01*
X118496400Y-122732800D01*
X118516400Y-122732800D01*
X118516400Y-122712800D01*
X118770400Y-122712800D01*
X118770400Y-122732800D01*
X118770400Y-122732800D01*
G37*
X118770400Y-122732800D02*
X118790400Y-122732800D01*
X118790400Y-122986800D01*
X118770400Y-122986800D01*
X118770400Y-123006800D01*
X118516400Y-123006800D01*
X118516400Y-122986800D01*
X118496400Y-122986800D01*
X118496400Y-122732800D01*
X118516400Y-122732800D01*
X118516400Y-122712800D01*
X118770400Y-122712800D01*
X118770400Y-122732800D01*
G36*
X121708843Y-114807365D02*
X121769873Y-114898702D01*
X121768673Y-114899902D01*
X121672000Y-115133291D01*
X121672000Y-115373850D01*
X121830750Y-115532600D01*
X122555000Y-115532600D01*
X122555000Y-115512600D01*
X122739092Y-115512600D01*
X122599964Y-115847656D01*
X122599640Y-116219622D01*
X122741685Y-116563398D01*
X122849777Y-116671678D01*
X122995987Y-116890497D01*
X123738305Y-117632815D01*
X123959926Y-117780898D01*
X124073311Y-117950589D01*
X124283355Y-118090937D01*
X124462367Y-118126544D01*
X124427301Y-118161549D01*
X124284655Y-118505077D01*
X124284331Y-118877043D01*
X124426376Y-119220819D01*
X124689166Y-119484068D01*
X125032694Y-119626714D01*
X125404660Y-119627038D01*
X125748436Y-119484993D01*
X126011685Y-119222203D01*
X126154331Y-118878675D01*
X126154369Y-118834630D01*
X126172297Y-118816703D01*
X126288501Y-118642791D01*
X126337477Y-118569493D01*
X126395481Y-118277888D01*
X126395481Y-118140220D01*
X126827280Y-118140220D01*
X127075045Y-118090937D01*
X127130000Y-118054217D01*
X127130000Y-121641766D01*
X126836889Y-121445915D01*
X126263400Y-121331841D01*
X125689911Y-121445915D01*
X125203730Y-121770771D01*
X124993400Y-122085552D01*
X124783070Y-121770771D01*
X124296889Y-121445915D01*
X123723400Y-121331841D01*
X123149911Y-121445915D01*
X122663730Y-121770771D01*
X122453400Y-122085552D01*
X122243070Y-121770771D01*
X121756889Y-121445915D01*
X121183400Y-121331841D01*
X120609911Y-121445915D01*
X120123730Y-121770771D01*
X119907736Y-122094028D01*
X119850221Y-121971310D01*
X119640670Y-121780040D01*
X119684800Y-121780040D01*
X119932565Y-121730757D01*
X120142609Y-121590409D01*
X120282957Y-121380365D01*
X120332240Y-121132600D01*
X120332240Y-119100600D01*
X120282957Y-118852835D01*
X120260894Y-118819815D01*
X120457206Y-118688644D01*
X120708662Y-118312313D01*
X120796962Y-117868400D01*
X120708662Y-117424487D01*
X120457206Y-117048156D01*
X120080875Y-116796700D01*
X119636962Y-116708400D01*
X118775838Y-116708400D01*
X118746093Y-116714317D01*
X118841233Y-116485194D01*
X118841272Y-116440840D01*
X119706400Y-116440840D01*
X119954165Y-116391557D01*
X120164209Y-116251209D01*
X120304557Y-116041165D01*
X120323615Y-115945350D01*
X121672000Y-115945350D01*
X121672000Y-116185909D01*
X121768673Y-116419298D01*
X121947301Y-116597927D01*
X122180690Y-116694600D01*
X122396250Y-116694600D01*
X122555000Y-116535850D01*
X122555000Y-115786600D01*
X121830750Y-115786600D01*
X121672000Y-115945350D01*
X120323615Y-115945350D01*
X120353840Y-115793400D01*
X120353840Y-115393400D01*
X120349697Y-115372572D01*
X120590201Y-115472438D01*
X120962167Y-115472762D01*
X121305943Y-115330717D01*
X121569192Y-115067927D01*
X121698655Y-114756147D01*
X121708843Y-114807365D01*
X121708843Y-114807365D01*
G37*
X121708843Y-114807365D02*
X121769873Y-114898702D01*
X121768673Y-114899902D01*
X121672000Y-115133291D01*
X121672000Y-115373850D01*
X121830750Y-115532600D01*
X122555000Y-115532600D01*
X122555000Y-115512600D01*
X122739092Y-115512600D01*
X122599964Y-115847656D01*
X122599640Y-116219622D01*
X122741685Y-116563398D01*
X122849777Y-116671678D01*
X122995987Y-116890497D01*
X123738305Y-117632815D01*
X123959926Y-117780898D01*
X124073311Y-117950589D01*
X124283355Y-118090937D01*
X124462367Y-118126544D01*
X124427301Y-118161549D01*
X124284655Y-118505077D01*
X124284331Y-118877043D01*
X124426376Y-119220819D01*
X124689166Y-119484068D01*
X125032694Y-119626714D01*
X125404660Y-119627038D01*
X125748436Y-119484993D01*
X126011685Y-119222203D01*
X126154331Y-118878675D01*
X126154369Y-118834630D01*
X126172297Y-118816703D01*
X126288501Y-118642791D01*
X126337477Y-118569493D01*
X126395481Y-118277888D01*
X126395481Y-118140220D01*
X126827280Y-118140220D01*
X127075045Y-118090937D01*
X127130000Y-118054217D01*
X127130000Y-121641766D01*
X126836889Y-121445915D01*
X126263400Y-121331841D01*
X125689911Y-121445915D01*
X125203730Y-121770771D01*
X124993400Y-122085552D01*
X124783070Y-121770771D01*
X124296889Y-121445915D01*
X123723400Y-121331841D01*
X123149911Y-121445915D01*
X122663730Y-121770771D01*
X122453400Y-122085552D01*
X122243070Y-121770771D01*
X121756889Y-121445915D01*
X121183400Y-121331841D01*
X120609911Y-121445915D01*
X120123730Y-121770771D01*
X119907736Y-122094028D01*
X119850221Y-121971310D01*
X119640670Y-121780040D01*
X119684800Y-121780040D01*
X119932565Y-121730757D01*
X120142609Y-121590409D01*
X120282957Y-121380365D01*
X120332240Y-121132600D01*
X120332240Y-119100600D01*
X120282957Y-118852835D01*
X120260894Y-118819815D01*
X120457206Y-118688644D01*
X120708662Y-118312313D01*
X120796962Y-117868400D01*
X120708662Y-117424487D01*
X120457206Y-117048156D01*
X120080875Y-116796700D01*
X119636962Y-116708400D01*
X118775838Y-116708400D01*
X118746093Y-116714317D01*
X118841233Y-116485194D01*
X118841272Y-116440840D01*
X119706400Y-116440840D01*
X119954165Y-116391557D01*
X120164209Y-116251209D01*
X120304557Y-116041165D01*
X120323615Y-115945350D01*
X121672000Y-115945350D01*
X121672000Y-116185909D01*
X121768673Y-116419298D01*
X121947301Y-116597927D01*
X122180690Y-116694600D01*
X122396250Y-116694600D01*
X122555000Y-116535850D01*
X122555000Y-115786600D01*
X121830750Y-115786600D01*
X121672000Y-115945350D01*
X120323615Y-115945350D01*
X120353840Y-115793400D01*
X120353840Y-115393400D01*
X120349697Y-115372572D01*
X120590201Y-115472438D01*
X120962167Y-115472762D01*
X121305943Y-115330717D01*
X121569192Y-115067927D01*
X121698655Y-114756147D01*
X121708843Y-114807365D01*
M02*
