M48
;DRILL file {KiCad 0.201603171416+6624~43~ubuntu15.10.1-product} date fre 18 mar 2016 22:59:08 CET
;FORMAT={-:-/ absolute / metric / decimal}
FMAT,2
METRIC,TZ
T1C0.400
T2C0.450
T3C1.016
T4C0.650
%
G90
G05
M71
T1
X120.904Y-111.836
X121.209Y-113.554
X121.209Y-114.334
X123.469Y-119.278
X124.358Y-119.38
X124.511Y-113.919
X125.171Y-111.125
X126.337Y-119.251
X126.441Y-111.557
T3
X116.103Y-122.86
X116.103Y-125.4
X116.129Y-120.117
X118.643Y-122.86
X118.643Y-125.4
X118.669Y-120.117
X121.183Y-122.86
X121.183Y-125.4
X123.723Y-122.86
X123.723Y-125.4
X126.263Y-122.86
X126.263Y-125.4
X128.803Y-122.86
X128.803Y-125.4
T4
X117.881Y-112.293
X117.881Y-116.293
T2
X116.156Y-110.718G85X115.356Y-110.718
G05
X116.156Y-117.868G85X115.356Y-117.868
G05
X119.606Y-110.718G85X118.806Y-110.718
G05
X119.606Y-117.868G85X118.806Y-117.868
G05
T0
M30
