M48
;DRILL file {KiCad no-vcs-found-7664~57~ubuntu16.10.1} date Wed Feb 22 20:41:41 2017
;FORMAT={3:3/ absolute / metric / keep zeros}
FMAT,2
METRIC,TZ
T1C0.400
T2C0.450
T3C1.016
T4C0.650
%
G90
G05
M71
T1
X119980Y-114300
X120087Y-117988
X120655Y-117420
X120737Y-114478
X120853Y-116281
X123957Y-113690
X124058Y-120782
X124218Y-115722
X126009Y-116688
X127469Y-118790
T3
X115748Y-122657
X115748Y-125197
X119583Y-122657
X119583Y-125197
X122123Y-122657
X122123Y-125197
X124663Y-122657
X124663Y-125197
X127203Y-122657
X127203Y-125197
T4
X117373Y-113602
X117373Y-117602
T2
X115648Y-112027G85X114848Y-112027
G05
X115648Y-119177G85X114848Y-119177
G05
X119098Y-112027G85X118298Y-112027
G05
X119098Y-119177G85X118298Y-119177
G05
T0
M30
