G04 #@! TF.FileFunction,Soldermask,Top*
%FSLAX46Y46*%
G04 Gerber Fmt 4.6, Leading zero omitted, Abs format (unit mm)*
G04 Created by KiCad (PCBNEW 4.1.0-alpha+201609050731+7118~50~ubuntu16.04.1-product) date Sat Sep 10 22:59:24 2016*
%MOMM*%
%LPD*%
G01*
G04 APERTURE LIST*
%ADD10C,0.100000*%
%ADD11R,2.100000X0.800000*%
%ADD12O,2.250000X1.450000*%
%ADD13C,1.050000*%
%ADD14R,1.150000X1.200000*%
%ADD15R,1.197560X1.197560*%
%ADD16R,2.432000X2.432000*%
%ADD17O,2.432000X2.432000*%
%ADD18R,2.127200X2.127200*%
%ADD19O,2.127200X2.127200*%
%ADD20R,1.300000X1.600000*%
G04 APERTURE END LIST*
D10*
D11*
X118348400Y-115602000D03*
X118348400Y-116252000D03*
X118348400Y-114952000D03*
D10*
G36*
X117298400Y-113902000D02*
X119398400Y-113902000D01*
X119398400Y-114702000D01*
X117298400Y-114702000D01*
X117298400Y-113902000D01*
X117298400Y-113902000D01*
G37*
D11*
X118348400Y-116902000D03*
D12*
X115248400Y-112027000D03*
X115248400Y-119177000D03*
X118698400Y-112027000D03*
X118698400Y-119177000D03*
D13*
X117373400Y-113602000D03*
X117373400Y-117602000D03*
D14*
X121742200Y-113919000D03*
X121742200Y-115419000D03*
D15*
X125095000Y-116078000D03*
X125095000Y-114579400D03*
X126949200Y-116065300D03*
X126949200Y-114566700D03*
D16*
X115747800Y-125196600D03*
D17*
X115747800Y-122656600D03*
D18*
X119583200Y-125196600D03*
D19*
X119583200Y-122656600D03*
X122123200Y-125196600D03*
X122123200Y-122656600D03*
X124663200Y-125196600D03*
X124663200Y-122656600D03*
X127203200Y-125196600D03*
X127203200Y-122656600D03*
D15*
X123240800Y-116078000D03*
X123240800Y-114579400D03*
D20*
X123240800Y-119862600D03*
X123240800Y-117662600D03*
X125095000Y-119862600D03*
X125095000Y-117662600D03*
X126949200Y-119862600D03*
X126949200Y-117662600D03*
M02*
