G04 #@! TF.GenerationSoftware,KiCad,Pcbnew,no-vcs-found-7664~57~ubuntu16.10.1*
G04 #@! TF.CreationDate,2017-02-22T20:41:29+01:00*
G04 #@! TF.ProjectId,MysX2USB,4D797358325553422E6B696361645F70,rev?*
G04 #@! TF.FileFunction,Legend,Top*
G04 #@! TF.FilePolarity,Positive*
%FSLAX46Y46*%
G04 Gerber Fmt 4.6, Leading zero omitted, Abs format (unit mm)*
G04 Created by KiCad (PCBNEW no-vcs-found-7664~57~ubuntu16.10.1) date Wed Feb 22 20:41:29 2017*
%MOMM*%
%LPD*%
G01*
G04 APERTURE LIST*
%ADD10C,0.100000*%
%ADD11C,0.150000*%
G04 APERTURE END LIST*
D10*
D11*
X114098400Y-111802000D02*
X119348400Y-111802000D01*
X119348400Y-111802000D02*
X119348400Y-119402000D01*
X119348400Y-119402000D02*
X114098400Y-119402000D01*
X114098400Y-111802000D02*
X114098400Y-119402000D01*
X122342200Y-114319000D02*
X122342200Y-115019000D01*
X121142200Y-115019000D02*
X121142200Y-114319000D01*
X124545000Y-114228700D02*
X124545000Y-116128700D01*
X125645000Y-114228700D02*
X125645000Y-116128700D01*
X125095000Y-115128700D02*
X125095000Y-115578700D01*
X125345000Y-115078700D02*
X124845000Y-115078700D01*
X125095000Y-115078700D02*
X125345000Y-115328700D01*
X125345000Y-115328700D02*
X124845000Y-115328700D01*
X124845000Y-115328700D02*
X125095000Y-115078700D01*
X126399200Y-114216000D02*
X126399200Y-116116000D01*
X127499200Y-114216000D02*
X127499200Y-116116000D01*
X126949200Y-115116000D02*
X126949200Y-115566000D01*
X127199200Y-115066000D02*
X126699200Y-115066000D01*
X126949200Y-115066000D02*
X127199200Y-115316000D01*
X127199200Y-115316000D02*
X126699200Y-115316000D01*
X126699200Y-115316000D02*
X126949200Y-115066000D01*
X114477800Y-123926600D02*
X114477800Y-121386600D01*
X114197800Y-126746600D02*
X114197800Y-125196600D01*
X114477800Y-123926600D02*
X117017800Y-123926600D01*
X117297800Y-125196600D02*
X117297800Y-126746600D01*
X117297800Y-126746600D02*
X114197800Y-126746600D01*
X117017800Y-123926600D02*
X117017800Y-121386600D01*
X117017800Y-121386600D02*
X114477800Y-121386600D01*
X122690800Y-114228700D02*
X122690800Y-116128700D01*
X123790800Y-114228700D02*
X123790800Y-116128700D01*
X123240800Y-115128700D02*
X123240800Y-115578700D01*
X123490800Y-115078700D02*
X122990800Y-115078700D01*
X123240800Y-115078700D02*
X123490800Y-115328700D01*
X123490800Y-115328700D02*
X122990800Y-115328700D01*
X122990800Y-115328700D02*
X123240800Y-115078700D01*
X123915800Y-118262600D02*
X123915800Y-119262600D01*
X122565800Y-119262600D02*
X122565800Y-118262600D01*
X125770000Y-118262600D02*
X125770000Y-119262600D01*
X124420000Y-119262600D02*
X124420000Y-118262600D01*
X127624200Y-118262600D02*
X127624200Y-119262600D01*
X126274200Y-119262600D02*
X126274200Y-118262600D01*
X115666780Y-116397495D02*
X114666780Y-116397495D01*
X114666780Y-116016542D01*
X114714400Y-115921304D01*
X114762019Y-115873685D01*
X114857257Y-115826066D01*
X115000114Y-115826066D01*
X115095352Y-115873685D01*
X115142971Y-115921304D01*
X115190590Y-116016542D01*
X115190590Y-116397495D01*
X115666780Y-114873685D02*
X115666780Y-115445114D01*
X115666780Y-115159400D02*
X114666780Y-115159400D01*
X114809638Y-115254638D01*
X114904876Y-115349876D01*
X114952495Y-115445114D01*
X125547380Y-113196666D02*
X125071190Y-113530000D01*
X125547380Y-113768095D02*
X124547380Y-113768095D01*
X124547380Y-113387142D01*
X124595000Y-113291904D01*
X124642619Y-113244285D01*
X124737857Y-113196666D01*
X124880714Y-113196666D01*
X124975952Y-113244285D01*
X125023571Y-113291904D01*
X125071190Y-113387142D01*
X125071190Y-113768095D01*
X124547380Y-112863333D02*
X125547380Y-112196666D01*
X124547380Y-112196666D02*
X125547380Y-112863333D01*
X126401580Y-113791904D02*
X126401580Y-113220476D01*
X127401580Y-113506190D02*
X126401580Y-113506190D01*
X126401580Y-112982380D02*
X127401580Y-112315714D01*
X126401580Y-112315714D02*
X127401580Y-112982380D01*
X115009704Y-130748980D02*
X115009704Y-129748980D01*
X115390657Y-129748980D01*
X115485895Y-129796600D01*
X115533514Y-129844219D01*
X115581133Y-129939457D01*
X115581133Y-130082314D01*
X115533514Y-130177552D01*
X115485895Y-130225171D01*
X115390657Y-130272790D01*
X115009704Y-130272790D01*
X115914466Y-129748980D02*
X116533514Y-129748980D01*
X116200180Y-130129933D01*
X116343038Y-130129933D01*
X116438276Y-130177552D01*
X116485895Y-130225171D01*
X116533514Y-130320409D01*
X116533514Y-130558504D01*
X116485895Y-130653742D01*
X116438276Y-130701361D01*
X116343038Y-130748980D01*
X116057323Y-130748980D01*
X115962085Y-130701361D01*
X115914466Y-130653742D01*
X122693180Y-113782266D02*
X122693180Y-113210838D01*
X123693180Y-113496552D02*
X122693180Y-113496552D01*
X123693180Y-112306076D02*
X123216990Y-112639409D01*
X123693180Y-112877504D02*
X122693180Y-112877504D01*
X122693180Y-112496552D01*
X122740800Y-112401314D01*
X122788419Y-112353695D01*
X122883657Y-112306076D01*
X123026514Y-112306076D01*
X123121752Y-112353695D01*
X123169371Y-112401314D01*
X123216990Y-112496552D01*
X123216990Y-112877504D01*
X122740800Y-111353695D02*
X122693180Y-111448933D01*
X122693180Y-111591790D01*
X122740800Y-111734647D01*
X122836038Y-111829885D01*
X122931276Y-111877504D01*
X123121752Y-111925123D01*
X123264609Y-111925123D01*
X123455085Y-111877504D01*
X123550323Y-111829885D01*
X123645561Y-111734647D01*
X123693180Y-111591790D01*
X123693180Y-111496552D01*
X123645561Y-111353695D01*
X123597942Y-111306076D01*
X123264609Y-111306076D01*
X123264609Y-111496552D01*
X122693180Y-111020361D02*
X122693180Y-110448933D01*
X123693180Y-110734647D02*
X122693180Y-110734647D01*
X121793180Y-118929266D02*
X121316990Y-119262600D01*
X121793180Y-119500695D02*
X120793180Y-119500695D01*
X120793180Y-119119742D01*
X120840800Y-119024504D01*
X120888419Y-118976885D01*
X120983657Y-118929266D01*
X121126514Y-118929266D01*
X121221752Y-118976885D01*
X121269371Y-119024504D01*
X121316990Y-119119742D01*
X121316990Y-119500695D01*
X120793180Y-118595933D02*
X120793180Y-117976885D01*
X121174133Y-118310219D01*
X121174133Y-118167361D01*
X121221752Y-118072123D01*
X121269371Y-118024504D01*
X121364609Y-117976885D01*
X121602704Y-117976885D01*
X121697942Y-118024504D01*
X121745561Y-118072123D01*
X121793180Y-118167361D01*
X121793180Y-118453076D01*
X121745561Y-118548314D01*
X121697942Y-118595933D01*
X123647380Y-118929266D02*
X123171190Y-119262600D01*
X123647380Y-119500695D02*
X122647380Y-119500695D01*
X122647380Y-119119742D01*
X122695000Y-119024504D01*
X122742619Y-118976885D01*
X122837857Y-118929266D01*
X122980714Y-118929266D01*
X123075952Y-118976885D01*
X123123571Y-119024504D01*
X123171190Y-119119742D01*
X123171190Y-119500695D01*
X123647380Y-117976885D02*
X123647380Y-118548314D01*
X123647380Y-118262600D02*
X122647380Y-118262600D01*
X122790238Y-118357838D01*
X122885476Y-118453076D01*
X122933095Y-118548314D01*
X125501580Y-118929266D02*
X125025390Y-119262600D01*
X125501580Y-119500695D02*
X124501580Y-119500695D01*
X124501580Y-119119742D01*
X124549200Y-119024504D01*
X124596819Y-118976885D01*
X124692057Y-118929266D01*
X124834914Y-118929266D01*
X124930152Y-118976885D01*
X124977771Y-119024504D01*
X125025390Y-119119742D01*
X125025390Y-119500695D01*
X124596819Y-118548314D02*
X124549200Y-118500695D01*
X124501580Y-118405457D01*
X124501580Y-118167361D01*
X124549200Y-118072123D01*
X124596819Y-118024504D01*
X124692057Y-117976885D01*
X124787295Y-117976885D01*
X124930152Y-118024504D01*
X125501580Y-118595933D01*
X125501580Y-117976885D01*
M02*
